<svg width="16" height="16" viewBox="0 0 16 16" fill="none" xmlns="http://www.w3.org/2000/svg">
<path d="M14.6663 6.50065C14.393 6.50065 14.1663 6.27398 14.1663 6.00065V4.66732C14.1663 2.94732 13.053 1.83398 11.333 1.83398H4.66634C2.94634 1.83398 1.83301 2.94732 1.83301 4.66732V6.00065C1.83301 6.27398 1.60634 6.50065 1.33301 6.50065C1.05967 6.50065 0.833008 6.27398 0.833008 6.00065V4.66732C0.833008 2.37398 2.37301 0.833984 4.66634 0.833984H11.333C13.6263 0.833984 15.1663 2.37398 15.1663 4.66732V6.00065C15.1663 6.27398 14.9397 6.50065 14.6663 6.50065Z" fill="#0D9488"/>
<path d="M11.333 15.1686H4.66634C2.37301 15.1686 0.833008 13.6286 0.833008 11.3353V10.002C0.833008 9.72862 1.05967 9.50195 1.33301 9.50195C1.60634 9.50195 1.83301 9.72862 1.83301 10.002V11.3353C1.83301 13.0553 2.94634 14.1686 4.66634 14.1686H11.333C13.053 14.1686 14.1663 13.0553 14.1663 11.3353V10.002C14.1663 9.72862 14.393 9.50195 14.6663 9.50195C14.9397 9.50195 15.1663 9.72862 15.1663 10.002V11.3353C15.1663 13.6286 13.6263 15.1686 11.333 15.1686Z" fill="#0D9488"/>
<path d="M8.0004 8.72192C7.91373 8.72192 7.82706 8.7019 7.74706 8.65523L4.21373 6.61523C3.97373 6.47523 3.89373 6.16859 4.03373 5.92859C4.17373 5.68859 4.4804 5.60857 4.71373 5.74857L7.99373 7.64856L11.2537 5.76192C11.4937 5.62192 11.8004 5.70856 11.9337 5.94189C12.0737 6.18189 11.9871 6.48858 11.7537 6.62858L8.24706 8.65523C8.17373 8.69523 8.08706 8.72192 8.0004 8.72192Z" fill="#0D9488"/>
<path d="M8 12.3474C7.72667 12.3474 7.5 12.1207 7.5 11.8474V8.2207C7.5 7.94737 7.72667 7.7207 8 7.7207C8.27333 7.7207 8.5 7.94737 8.5 8.2207V11.8474C8.5 12.1207 8.27333 12.3474 8 12.3474Z" fill="#0D9488"/>
<path d="M8.00064 12.5025C7.61397 12.5025 7.23397 12.4158 6.92731 12.2491L4.79398 11.0625C4.15398 10.7092 3.66064 9.86248 3.66064 9.12915V6.86914C3.66064 6.14247 4.16064 5.29583 4.79398 4.93583L6.92731 3.74914C7.54064 3.40914 8.46064 3.40914 9.07398 3.74914L11.2073 4.93583C11.8473 5.28916 12.3406 6.1358 12.3406 6.86914V9.12915C12.3406 9.85581 11.8406 10.7025 11.2073 11.0625L9.07398 12.2491C8.76731 12.4158 8.38731 12.5025 8.00064 12.5025ZM7.41397 4.62915L5.28064 5.81579C4.95397 5.99579 4.66064 6.50247 4.66064 6.86914V9.12915C4.66064 9.50248 4.95397 10.0025 5.28064 10.1825L7.41397 11.3691C7.72064 11.5358 8.28064 11.5358 8.58731 11.3691L10.7206 10.1825C11.0473 10.0025 11.3406 9.49581 11.3406 9.12915V6.86914C11.3406 6.4958 11.0473 5.99579 10.7206 5.81579L8.58731 4.62915C8.28064 4.46248 7.72064 4.46248 7.41397 4.62915Z" fill="#0D9488"/>
</svg>
