<svg width="16" height="16" viewBox="0 0 16 16" fill="none" xmlns="http://www.w3.org/2000/svg">
<path d="M8.0004 8.7211C7.91374 8.7211 7.82707 8.70111 7.74707 8.65444L4.21374 6.61444C3.97374 6.47444 3.89373 6.16777 4.03373 5.93444C4.17373 5.69444 4.47373 5.61444 4.7204 5.75444L8.0004 7.65444L11.2604 5.76777C11.5004 5.62777 11.8071 5.71444 11.9471 5.94777C12.0871 6.18777 12.0004 6.49444 11.7671 6.62777L8.26041 8.65444C8.17375 8.69444 8.08707 8.7211 8.0004 8.7211Z" fill="#0D9488"/>
<path d="M8 12.3474C7.72667 12.3474 7.5 12.1207 7.5 11.8474V8.2207C7.5 7.94737 7.72667 7.7207 8 7.7207C8.27333 7.7207 8.5 7.94737 8.5 8.2207V11.8474C8.5 12.1207 8.27333 12.3474 8 12.3474Z" fill="#0D9488"/>
<path d="M8.00065 12.5025C7.61398 12.5025 7.23399 12.4158 6.92733 12.2491L4.79399 11.0625C4.15399 10.7091 3.66064 9.86247 3.66064 9.12914V6.86914C3.66064 6.14247 4.16065 5.28914 4.79399 4.93581L6.92733 3.74914C7.54066 3.40914 8.46064 3.40914 9.07397 3.74914L11.2073 4.93581C11.8473 5.28914 12.3407 6.13581 12.3407 6.86914V9.12914C12.3407 9.85581 11.8406 10.7091 11.2073 11.0625L9.07397 12.2491C8.76731 12.4158 8.38732 12.5025 8.00065 12.5025ZM8.00065 4.50247C7.78065 4.50247 7.56731 4.54247 7.41398 4.62914L5.28066 5.81581C4.95399 5.99581 4.66064 6.50247 4.66064 6.86914V9.12914C4.66064 9.50247 4.95399 10.0025 5.28066 10.1825L7.41398 11.3691C7.72065 11.5425 8.28065 11.5425 8.58732 11.3691L10.7206 10.1825C11.0473 10.0025 11.3407 9.49581 11.3407 9.12914V6.86914C11.3407 6.49581 11.0473 5.99581 10.7206 5.81581L8.58732 4.62914C8.43399 4.54247 8.22065 4.50247 8.00065 4.50247Z" fill="#0D9488"/>
<path d="M10.0005 15.1694C9.82046 15.1694 9.65379 15.0694 9.56713 14.9161C9.48046 14.7561 9.48045 14.5694 9.57378 14.4094L10.2738 13.2428C10.4138 13.0094 10.7205 12.9294 10.9605 13.0694C11.2005 13.2094 11.2738 13.5161 11.1338 13.7561L10.9538 14.0561C12.7938 13.6228 14.1738 11.9694 14.1738 9.99609C14.1738 9.72276 14.4005 9.49609 14.6738 9.49609C14.9471 9.49609 15.1738 9.72276 15.1738 9.99609C15.1671 12.8494 12.8471 15.1694 10.0005 15.1694Z" fill="#0D9488"/>
<path d="M1.33301 6.50065C1.05967 6.50065 0.833008 6.27398 0.833008 6.00065C0.833008 3.15398 3.15301 0.833984 5.99967 0.833984C6.17967 0.833984 6.34634 0.933983 6.433 1.08732C6.51967 1.24732 6.51968 1.43398 6.42635 1.59398L5.72634 2.76065C5.58634 2.99398 5.27967 3.07399 5.03967 2.93399C4.79967 2.79399 4.72633 2.48732 4.86633 2.24732L5.04635 1.94732C3.20635 2.38065 1.82633 4.03399 1.82633 6.00732C1.833 6.27399 1.60634 6.50065 1.33301 6.50065Z" fill="#0D9488"/>
</svg>
