<svg width="16" height="16" viewBox="0 0 16 16" fill="none" xmlns="http://www.w3.org/2000/svg">
<path d="M11.633 15.1673C10.8797 15.1673 10.0863 14.9873 9.26634 14.6406C8.46634 14.3006 7.65967 13.834 6.87301 13.2673C6.09301 12.694 5.33967 12.054 4.62634 11.354C3.91967 10.6407 3.27967 9.88732 2.71301 9.11398C2.13967 8.31398 1.67967 7.51398 1.35301 6.74065C1.00634 5.91398 0.833008 5.11398 0.833008 4.36065C0.833008 3.84065 0.926341 3.34732 1.10634 2.88732C1.29301 2.41398 1.59301 1.97398 1.99967 1.59398C2.51301 1.08732 3.09967 0.833984 3.72634 0.833984C3.98634 0.833984 4.25301 0.893984 4.47967 1.00065C4.73967 1.12065 4.95967 1.30065 5.11967 1.54065L6.66634 3.72065C6.80634 3.91398 6.91301 4.10065 6.98634 4.28732C7.07301 4.48732 7.11967 4.68732 7.11967 4.88065C7.11967 5.13398 7.04634 5.38065 6.90634 5.61398C6.80634 5.79398 6.65301 5.98732 6.45967 6.18065L6.00634 6.65398C6.01301 6.67398 6.01967 6.68732 6.02634 6.70065C6.10634 6.84065 6.26634 7.08065 6.57301 7.44065C6.89967 7.81398 7.20634 8.15398 7.51301 8.46732C7.90634 8.85398 8.23301 9.16065 8.53967 9.41398C8.91967 9.73398 9.16634 9.89398 9.31301 9.96732L9.29967 10.0007L9.78634 9.52065C9.99301 9.31398 10.193 9.16065 10.3863 9.06065C10.753 8.83398 11.2197 8.79398 11.6863 8.98732C11.8597 9.06065 12.0463 9.16065 12.2463 9.30065L14.4597 10.874C14.7063 11.0407 14.8863 11.254 14.993 11.5073C15.093 11.7607 15.1397 11.994 15.1397 12.2273C15.1397 12.5473 15.0663 12.8673 14.9263 13.1673C14.7863 13.4673 14.613 13.7273 14.393 13.9673C14.013 14.3873 13.5997 14.6873 13.1197 14.8806C12.6597 15.0673 12.1597 15.1673 11.633 15.1673ZM3.72634 1.83398C3.35967 1.83398 3.01967 1.99398 2.69301 2.31398C2.38634 2.60065 2.17301 2.91398 2.03967 3.25398C1.89967 3.60065 1.83301 3.96732 1.83301 4.36065C1.83301 4.98065 1.97967 5.65398 2.27301 6.34732C2.57301 7.05398 2.99301 7.78732 3.52634 8.52065C4.05967 9.25398 4.66634 9.96732 5.33301 10.6407C5.99967 11.3007 6.71967 11.914 7.45967 12.454C8.17967 12.9807 8.91967 13.4073 9.65301 13.714C10.793 14.2007 11.8597 14.314 12.7397 13.9473C13.0797 13.8073 13.3797 13.594 13.653 13.2873C13.8063 13.1207 13.9263 12.9406 14.0263 12.7273C14.1063 12.5607 14.1463 12.3873 14.1463 12.214C14.1463 12.1073 14.1263 12.0007 14.073 11.8807C14.053 11.8407 14.013 11.7673 13.8863 11.6807L11.673 10.1073C11.5397 10.014 11.4197 9.94732 11.3063 9.90065C11.1597 9.84065 11.0997 9.78065 10.873 9.92065C10.7397 9.98732 10.6197 10.0873 10.4863 10.2207L9.97967 10.7207C9.71967 10.974 9.31967 11.034 9.01301 10.9206L8.83301 10.8407C8.55967 10.694 8.23967 10.4673 7.88634 10.1673C7.56634 9.89398 7.21967 9.57398 6.79967 9.16065C6.47301 8.82732 6.14634 8.47398 5.80634 8.08065C5.49301 7.71398 5.26634 7.40065 5.12634 7.14065L5.04634 6.94065C5.00634 6.78732 4.99301 6.70065 4.99301 6.60732C4.99301 6.36732 5.07967 6.15398 5.24634 5.98732L5.74634 5.46732C5.87967 5.33398 5.97967 5.20732 6.04634 5.09398C6.09967 5.00732 6.11967 4.93398 6.11967 4.86732C6.11967 4.81398 6.09967 4.73398 6.06634 4.65398C6.01967 4.54732 5.94634 4.42732 5.85301 4.30065L4.30634 2.11398C4.23967 2.02065 4.15967 1.95398 4.05967 1.90732C3.95301 1.86065 3.83967 1.83398 3.72634 1.83398ZM9.29967 10.0073L9.19301 10.4607L9.37301 9.99398C9.33967 9.98732 9.31301 9.99398 9.29967 10.0073Z" fill="#309F6D"/>
<path d="M12.3333 6.49935C12.06 6.49935 11.8333 6.27268 11.8333 5.99935C11.8333 5.75935 11.5933 5.25935 11.1933 4.83268C10.8 4.41268 10.3667 4.16602 10 4.16602C9.72667 4.16602 9.5 3.93935 9.5 3.66602C9.5 3.39268 9.72667 3.16602 10 3.16602C10.6467 3.16602 11.3267 3.51268 11.92 4.14602C12.4733 4.73935 12.8333 5.46602 12.8333 5.99935C12.8333 6.27268 12.6067 6.49935 12.3333 6.49935Z" fill="#309F6D"/>
<path d="M14.6667 6.50065C14.3933 6.50065 14.1667 6.27398 14.1667 6.00065C14.1667 3.70065 12.3 1.83398 10 1.83398C9.72667 1.83398 9.5 1.60732 9.5 1.33398C9.5 1.06065 9.72667 0.833984 10 0.833984C12.8467 0.833984 15.1667 3.15398 15.1667 6.00065C15.1667 6.27398 14.94 6.50065 14.6667 6.50065Z" fill="#309F6D"/>
</svg>
