<svg width="10" height="10" viewBox="0 0 10 10" fill="none" xmlns="http://www.w3.org/2000/svg">
<path d="M8.75003 2.80469C8.74169 2.80469 8.72919 2.80469 8.71669 2.80469C6.51253 2.58385 4.31253 2.50052 2.13336 2.72135L1.28336 2.80469C1.10836 2.82135 0.954193 2.69635 0.937526 2.52135C0.920859 2.34635 1.04586 2.19635 1.21669 2.17969L2.06669 2.09635C4.28336 1.87135 6.52919 1.95885 8.77919 2.17969C8.95003 2.19635 9.07503 2.35052 9.05836 2.52135C9.04586 2.68385 8.90836 2.80469 8.75003 2.80469Z" fill="#E11D48"/>
<path d="M3.54181 2.38398C3.52515 2.38398 3.50848 2.38398 3.48765 2.37982C3.32098 2.35065 3.20431 2.18815 3.23348 2.02148L3.32515 1.47565C3.39181 1.07565 3.48348 0.521484 4.45431 0.521484H5.54598C6.52098 0.521484 6.61265 1.09648 6.67515 1.47982L6.76681 2.02148C6.79598 2.19232 6.67931 2.35482 6.51265 2.37982C6.34181 2.40898 6.17931 2.29232 6.15431 2.12565L6.06265 1.58398C6.00431 1.22148 5.99181 1.15065 5.55015 1.15065H4.45848C4.01681 1.15065 4.00848 1.20898 3.94598 1.57982L3.85015 2.12148C3.82515 2.27565 3.69181 2.38398 3.54181 2.38398Z" fill="#E11D48"/>
<path d="M6.3375 9.47981H3.6625C2.20833 9.47981 2.15 8.67564 2.10417 8.02564L1.83333 3.82981C1.82083 3.65897 1.95417 3.50898 2.125 3.49648C2.3 3.48814 2.44583 3.61731 2.45833 3.78814L2.72917 7.98398C2.775 8.61731 2.79167 8.85481 3.6625 8.85481H6.3375C7.2125 8.85481 7.22917 8.61731 7.27083 7.98398L7.54167 3.78814C7.55417 3.61731 7.70416 3.48814 7.875 3.49648C8.04583 3.50898 8.17917 3.65481 8.16667 3.82981L7.89583 8.02564C7.85 8.67564 7.79167 9.47981 6.3375 9.47981Z" fill="#E11D48"/>
<path d="M5.6917 7.1875H4.3042C4.13337 7.1875 3.9917 7.04583 3.9917 6.875C3.9917 6.70417 4.13337 6.5625 4.3042 6.5625H5.6917C5.86253 6.5625 6.0042 6.70417 6.0042 6.875C6.0042 7.04583 5.86253 7.1875 5.6917 7.1875Z" fill="#E11D48"/>
<path d="M6.04183 5.52148H3.9585C3.78766 5.52148 3.646 5.37982 3.646 5.20898C3.646 5.03815 3.78766 4.89648 3.9585 4.89648H6.04183C6.21266 4.89648 6.35433 5.03815 6.35433 5.20898C6.35433 5.37982 6.21266 5.52148 6.04183 5.52148Z" fill="#E11D48"/>
</svg>
