<svg width="16" height="16" viewBox="0 0 16 16" fill="none" xmlns="http://www.w3.org/2000/svg">
<path d="M8.66683 9.83398H1.3335C1.06016 9.83398 0.833496 9.60732 0.833496 9.33398V4.00065C0.833496 2.25398 2.2535 0.833984 4.00016 0.833984H10.0002C10.2735 0.833984 10.5002 1.06065 10.5002 1.33398V8.00065C10.5002 9.01398 9.68016 9.83398 8.66683 9.83398ZM1.8335 8.83398H8.66683C9.12683 8.83398 9.50016 8.46065 9.50016 8.00065V1.83398H4.00016C2.80683 1.83398 1.8335 2.80732 1.8335 4.00065V8.83398Z" fill="#0D9488"/>
<path d="M12.6668 13.834H12.0002C11.7268 13.834 11.5002 13.6073 11.5002 13.334C11.5002 12.874 11.1268 12.5007 10.6668 12.5007C10.2068 12.5007 9.8335 12.874 9.8335 13.334C9.8335 13.6073 9.60683 13.834 9.3335 13.834H6.66683C6.3935 13.834 6.16683 13.6073 6.16683 13.334C6.16683 12.874 5.7935 12.5007 5.3335 12.5007C4.8735 12.5007 4.50016 12.874 4.50016 13.334C4.50016 13.6073 4.2735 13.834 4.00016 13.834H3.3335C1.9535 13.834 0.833496 12.714 0.833496 11.334V9.33398C0.833496 9.06065 1.06016 8.83398 1.3335 8.83398H8.66683C9.12683 8.83398 9.50016 8.46065 9.50016 8.00065V3.33398C9.50016 3.06065 9.72683 2.83398 10.0002 2.83398H11.2268C11.8868 2.83398 12.4935 3.18733 12.8202 3.76066L13.9602 5.75399C14.0468 5.90732 14.0468 6.10065 13.9602 6.25399C13.8735 6.40732 13.7068 6.50065 13.5268 6.50065H12.6668C12.5735 6.50065 12.5002 6.57398 12.5002 6.66732V8.66732C12.5002 8.76065 12.5735 8.83398 12.6668 8.83398H14.6668C14.9402 8.83398 15.1668 9.06065 15.1668 9.33398V11.334C15.1668 12.714 14.0468 13.834 12.6668 13.834ZM12.4335 12.834H12.6668C13.4935 12.834 14.1668 12.1607 14.1668 11.334V9.83398H12.6668C12.0268 9.83398 11.5002 9.30732 11.5002 8.66732V6.66732C11.5002 6.02732 12.0202 5.50065 12.6668 5.50065L11.9535 4.25399C11.8068 3.99399 11.5268 3.83398 11.2268 3.83398H10.5002V8.00065C10.5002 9.01398 9.68016 9.83398 8.66683 9.83398H1.8335V11.334C1.8335 12.1607 2.50683 12.834 3.3335 12.834H3.56683C3.78683 12.0673 4.4935 11.5007 5.3335 11.5007C6.1735 11.5007 6.88016 12.0673 7.10016 12.834H8.90682C9.12682 12.0673 9.8335 11.5007 10.6735 11.5007C11.5135 11.5007 12.2135 12.0673 12.4335 12.834Z" fill="#0D9488"/>
<path d="M5.33333 15.1667C4.32 15.1667 3.5 14.3467 3.5 13.3333C3.5 12.32 4.32 11.5 5.33333 11.5C6.34667 11.5 7.16667 12.32 7.16667 13.3333C7.16667 14.3467 6.34667 15.1667 5.33333 15.1667ZM5.33333 12.5C4.87333 12.5 4.5 12.8733 4.5 13.3333C4.5 13.7933 4.87333 14.1667 5.33333 14.1667C5.79333 14.1667 6.16667 13.7933 6.16667 13.3333C6.16667 12.8733 5.79333 12.5 5.33333 12.5Z" fill="#0D9488"/>
<path d="M10.6668 15.1667C9.6535 15.1667 8.8335 14.3467 8.8335 13.3333C8.8335 12.32 9.6535 11.5 10.6668 11.5C11.6802 11.5 12.5002 12.32 12.5002 13.3333C12.5002 14.3467 11.6802 15.1667 10.6668 15.1667ZM10.6668 12.5C10.2068 12.5 9.8335 12.8733 9.8335 13.3333C9.8335 13.7933 10.2068 14.1667 10.6668 14.1667C11.1268 14.1667 11.5002 13.7933 11.5002 13.3333C11.5002 12.8733 11.1268 12.5 10.6668 12.5Z" fill="#0D9488"/>
<path d="M14.6667 9.83333H12.6667C12.0267 9.83333 11.5 9.30667 11.5 8.66667V6.66667C11.5 6.02667 12.0267 5.5 12.6667 5.5H13.5267C13.7067 5.5 13.8733 5.59334 13.96 5.75334L15.1 7.75334C15.14 7.82667 15.1667 7.91333 15.1667 8V9.33333C15.1667 9.60667 14.94 9.83333 14.6667 9.83333ZM12.6667 6.5C12.5733 6.5 12.5 6.57333 12.5 6.66667V8.66667C12.5 8.76 12.5733 8.83333 12.6667 8.83333H14.1667V8.13334L13.2333 6.5H12.6667Z" fill="#0D9488"/>
</svg>
