<svg width="16" height="16" viewBox="0 0 16 16" fill="none" xmlns="http://www.w3.org/2000/svg">
<path d="M7.33364 9.83398H8.00031C8.27364 9.83398 8.50031 9.60732 8.50031 9.33398C8.50031 9.06065 8.27364 8.83398 8.00031 8.83398H7.33364C6.87364 8.83398 6.50031 8.46065 6.50031 8.00065V1.83398H12.0003C12.787 1.83398 13.507 2.26064 13.8937 2.94731C14.027 3.18731 14.3336 3.274 14.5736 3.14067C14.8136 3.00733 14.9003 2.70065 14.767 2.46065C14.207 1.46065 13.147 0.833984 12.0003 0.833984H6.00031C5.72698 0.833984 5.50031 1.06065 5.50031 1.33398V8.00065C5.50031 9.01398 6.32031 9.83398 7.33364 9.83398Z" fill="#0D9488"/>
<path d="M3.33317 13.832H3.99984C4.27317 13.832 4.49984 13.6054 4.49984 13.332C4.49984 12.872 4.87317 12.4987 5.33317 12.4987C5.79317 12.4987 6.1665 12.872 6.1665 13.332C6.1665 13.6054 6.39317 13.832 6.6665 13.832H9.33317C9.6065 13.832 9.83317 13.6054 9.83317 13.332C9.83317 12.872 10.2065 12.4987 10.6665 12.4987C11.1265 12.4987 11.4998 12.872 11.4998 13.332C11.4998 13.6054 11.7265 13.832 11.9998 13.832H12.6665C14.0465 13.832 15.1665 12.712 15.1665 11.332C15.1665 11.0587 14.9398 10.832 14.6665 10.832C14.3932 10.832 14.1665 11.0587 14.1665 11.332C14.1665 12.1587 13.4932 12.832 12.6665 12.832H12.4332C12.2132 12.0654 11.5065 11.4987 10.6665 11.4987C9.8265 11.4987 9.11982 12.0654 8.89982 12.832H7.09318C6.87318 12.0654 6.1665 11.4987 5.3265 11.4987C4.4865 11.4987 3.77986 12.0654 3.55986 12.832H3.33317C2.50651 12.832 1.83317 12.1587 1.83317 11.332V9.83203H3.33317C3.97317 9.83203 4.49984 9.30536 4.49984 8.66536V6.66536C4.49984 6.02536 3.97984 5.4987 3.33317 5.4987L4.04651 4.25203C4.19318 3.99203 4.47315 3.83203 4.77315 3.83203H5.49984V7.9987C5.49984 9.01203 6.31984 9.83203 7.33317 9.83203H7.99984C8.27317 9.83203 8.49984 9.60536 8.49984 9.33203C8.49984 9.0587 8.27317 8.83203 7.99984 8.83203H7.33317C6.87317 8.83203 6.49984 8.4587 6.49984 7.9987V3.33203C6.49984 3.0587 6.27317 2.83203 5.99984 2.83203H4.77315C4.11315 2.83203 3.50652 3.18537 3.17985 3.75871L2.03984 5.75203C1.95317 5.90537 1.95317 6.0987 2.03984 6.25203C2.1265 6.40537 2.29319 6.4987 2.47319 6.4987H3.33317C3.4265 6.4987 3.49984 6.57203 3.49984 6.66536V8.66536C3.49984 8.7587 3.4265 8.83203 3.33317 8.83203H1.33317C1.05984 8.83203 0.833172 9.0587 0.833172 9.33203V11.332C0.833172 12.712 1.95317 13.832 3.33317 13.832Z" fill="#0D9488"/>
<path d="M10.6667 15.1667C11.68 15.1667 12.5 14.3467 12.5 13.3333C12.5 12.32 11.68 11.5 10.6667 11.5C9.65333 11.5 8.83333 12.32 8.83333 13.3333C8.83333 14.3467 9.65333 15.1667 10.6667 15.1667ZM10.6667 12.5C11.1267 12.5 11.5 12.8733 11.5 13.3333C11.5 13.7933 11.1267 14.1667 10.6667 14.1667C10.2067 14.1667 9.83333 13.7933 9.83333 13.3333C9.83333 12.8733 10.2067 12.5 10.6667 12.5Z" fill="#0D9488"/>
<path d="M5.33317 15.1667C6.3465 15.1667 7.1665 14.3467 7.1665 13.3333C7.1665 12.32 6.3465 11.5 5.33317 11.5C4.31984 11.5 3.49984 12.32 3.49984 13.3333C3.49984 14.3467 4.31984 15.1667 5.33317 15.1667ZM5.33317 12.5C5.79317 12.5 6.1665 12.8733 6.1665 13.3333C6.1665 13.7933 5.79317 14.1667 5.33317 14.1667C4.87317 14.1667 4.49984 13.7933 4.49984 13.3333C4.49984 12.8733 4.87317 12.5 5.33317 12.5Z" fill="#0D9488"/>
<path d="M1.33333 9.83333H3.33333C3.97333 9.83333 4.5 9.30667 4.5 8.66667V6.66667C4.5 6.02667 3.97333 5.5 3.33333 5.5H2.47335C2.29335 5.5 2.12666 5.59334 2.04 5.75334L0.899983 7.75334C0.859983 7.82667 0.833333 7.91333 0.833333 8V9.33333C0.833333 9.60667 1.06 9.83333 1.33333 9.83333ZM3.33333 6.5C3.42667 6.5 3.5 6.57333 3.5 6.66667V8.66667C3.5 8.76 3.42667 8.83333 3.33333 8.83333H1.83333V8.13334L2.76668 6.5H3.33333Z" fill="#0D9488"/>
<path d="M10.6665 5.83203H14.6665C14.9398 5.83203 15.1665 5.60536 15.1665 5.33203C15.1665 5.0587 14.9398 4.83203 14.6665 4.83203H10.6665C10.3932 4.83203 10.1665 5.0587 10.1665 5.33203C10.1665 5.60536 10.3932 5.83203 10.6665 5.83203Z" fill="#0D9488"/>
<path d="M11.9998 7.83203H14.6665C14.9398 7.83203 15.1665 7.60536 15.1665 7.33203C15.1665 7.0587 14.9398 6.83203 14.6665 6.83203H11.9998C11.7265 6.83203 11.4998 7.0587 11.4998 7.33203C11.4998 7.60536 11.7265 7.83203 11.9998 7.83203Z" fill="#0D9488"/>
<path d="M13.3332 9.83398H14.6665C14.9398 9.83398 15.1665 9.60732 15.1665 9.33398C15.1665 9.06065 14.9398 8.83398 14.6665 8.83398H13.3332C13.0598 8.83398 12.8332 9.06065 12.8332 9.33398C12.8332 9.60732 13.0598 9.83398 13.3332 9.83398Z" fill="#0D9488"/>
</svg>
