<svg width="10" height="10" viewBox="0 0 10 10" fill="none" xmlns="http://www.w3.org/2000/svg">
<path d="M2.30833 8.13283C2.05416 8.13283 1.81666 8.04533 1.64583 7.88283C1.42916 7.67866 1.32499 7.37033 1.36249 7.03699L1.51666 5.68699C1.54583 5.43283 1.69999 5.09533 1.87916 4.91199L5.29999 1.29116C6.15416 0.386991 7.04583 0.361992 7.94999 1.21616C8.85416 2.07033 8.87916 2.96199 8.02499 3.86616L4.60416 7.48699C4.42916 7.67449 4.10416 7.84949 3.84999 7.89116L2.50833 8.12033C2.43749 8.12449 2.37499 8.13283 2.30833 8.13283ZM6.63749 1.21199C6.31666 1.21199 6.03749 1.41199 5.75416 1.71199L2.33333 5.33699C2.24999 5.42449 2.15416 5.63283 2.13749 5.75366L1.98333 7.10366C1.96666 7.24116 1.99999 7.35366 2.07499 7.42449C2.14999 7.49533 2.26249 7.52033 2.39999 7.49949L3.74166 7.27033C3.86249 7.24949 4.06249 7.14116 4.14583 7.05366L7.56666 3.43283C8.08333 2.88282 8.27083 2.37449 7.51666 1.66616C7.18333 1.34532 6.89583 1.21199 6.63749 1.21199Z" fill="#F59E0B"/>
<path d="M7.22486 4.56301C7.21652 4.56301 7.20402 4.56301 7.19569 4.56301C5.89569 4.43384 4.84986 3.44634 4.64986 2.15467C4.62486 1.98384 4.74152 1.82551 4.91236 1.79634C5.08319 1.77134 5.24152 1.88801 5.27069 2.05884C5.42902 3.06717 6.24569 3.84217 7.26236 3.94217C7.43319 3.95884 7.55819 4.11301 7.54152 4.28384C7.52069 4.44217 7.38319 4.56301 7.22486 4.56301Z" fill="#F59E0B"/>
<path d="M8.75 9.47852H1.25C1.07917 9.47852 0.9375 9.33685 0.9375 9.16602C0.9375 8.99518 1.07917 8.85352 1.25 8.85352H8.75C8.92083 8.85352 9.0625 8.99518 9.0625 9.16602C9.0625 9.33685 8.92083 9.47852 8.75 9.47852Z" fill="#F59E0B"/>
</svg>
