<svg width="12" height="12" viewBox="0 0 12 12" fill="none" xmlns="http://www.w3.org/2000/svg">
<path d="M2.73483 5.375C2.37983 5.375 2.01983 5.245 1.74483 4.98C0.824833 4.105 0.454833 3.15 0.669833 2.215C0.924833 1.115 1.88983 0.625 2.73483 0.625C3.57983 0.625 4.54983 1.12 4.79983 2.215C5.01483 3.15 4.63983 4.105 3.72483 4.98C3.44983 5.245 3.09483 5.375 2.73483 5.375ZM1.39983 2.385C1.20983 3.22 1.76483 3.96 2.26483 4.435C2.52983 4.69 2.94483 4.685 3.20983 4.435C3.70983 3.96 4.26483 3.22 4.06983 2.38C3.89983 1.64 3.24483 1.375 2.73983 1.375C2.22983 1.375 1.57483 1.64 1.39983 2.385Z" fill="#383838"/>
<path d="M2.75488 3.09961C2.47988 3.09961 2.25488 2.87461 2.25488 2.59961C2.25488 2.32461 2.47488 2.09961 2.75488 2.09961H2.75988C3.03488 2.09961 3.25988 2.32461 3.25988 2.59961C3.25988 2.87461 3.03488 3.09961 2.75488 3.09961Z" fill="#383838"/>
<path d="M9.24518 11.3741C8.89018 11.3741 8.53018 11.2441 8.25018 10.9791C7.32518 10.1041 6.95018 9.14914 7.17018 8.20914C7.42518 7.11414 8.39518 6.61914 9.24518 6.61914C10.0952 6.61914 11.0652 7.11414 11.3202 8.20914C11.5352 9.14414 11.1602 10.1041 10.2352 10.9741C9.96018 11.2441 9.60518 11.3741 9.24518 11.3741ZM9.24518 7.37414C8.73518 7.37414 8.07518 7.63914 7.90018 8.38414C7.70518 9.21914 8.26518 9.96414 8.76518 10.4391C9.03018 10.6941 9.45018 10.6941 9.72018 10.4391C10.2202 9.96414 10.7802 9.22414 10.5852 8.38914C10.4202 7.63914 9.76018 7.37414 9.24518 7.37414Z" fill="#383838"/>
<path d="M9.26514 9.09961C8.99014 9.09961 8.76514 8.87461 8.76514 8.59961C8.76514 8.32461 8.98514 8.09961 9.26514 8.09961H9.27014C9.54514 8.09961 9.77014 8.32461 9.77014 8.59961C9.77014 8.87461 9.54014 9.09961 9.26514 9.09961Z" fill="#383838"/>
<path d="M6.00021 9.875H4.66021C4.08021 9.875 3.57521 9.525 3.37521 8.985C3.17021 8.445 3.32021 7.85 3.75521 7.465L7.75022 3.97C7.99022 3.76 7.99522 3.475 7.92522 3.28C7.85022 3.085 7.66022 2.875 7.34022 2.875H6.00021C5.79521 2.875 5.62521 2.705 5.62521 2.5C5.62521 2.295 5.79521 2.125 6.00021 2.125H7.34022C7.92022 2.125 8.42522 2.475 8.62522 3.015C8.83022 3.555 8.68021 4.15 8.24521 4.535L4.25021 8.03C4.01021 8.24 4.00521 8.525 4.07521 8.72C4.15021 8.915 4.34021 9.125 4.66021 9.125H6.00021C6.20521 9.125 6.37521 9.295 6.37521 9.5C6.37521 9.705 6.20521 9.875 6.00021 9.875Z" fill="#383838"/>
<path d="M6.00021 9.875H4.66021C4.08021 9.875 3.57521 9.525 3.37521 8.985C3.17021 8.445 3.32021 7.85 3.75521 7.465L7.75022 3.97C7.99022 3.76 7.99522 3.475 7.92522 3.28C7.85022 3.085 7.66022 2.875 7.34022 2.875H6.00021C5.79521 2.875 5.62521 2.705 5.62521 2.5C5.62521 2.295 5.79521 2.125 6.00021 2.125H7.34022C7.92022 2.125 8.42522 2.475 8.62522 3.015C8.83022 3.555 8.68021 4.15 8.24521 4.535L4.25021 8.03C4.01021 8.24 4.00521 8.525 4.07521 8.72C4.15021 8.915 4.34021 9.125 4.66021 9.125H6.00021C6.20521 9.125 6.37521 9.295 6.37521 9.5C6.37521 9.705 6.20521 9.875 6.00021 9.875Z" fill="#383838"/>
</svg>
