<svg width="16" height="16" viewBox="0 0 16 16" fill="none" xmlns="http://www.w3.org/2000/svg">
<path d="M9.99967 15.1673H5.99967C2.37967 15.1673 0.833008 13.6207 0.833008 10.0007V6.00065C0.833008 2.38065 2.37967 0.833984 5.99967 0.833984H9.99967C13.6197 0.833984 15.1663 2.38065 15.1663 6.00065V10.0007C15.1663 13.6207 13.6197 15.1673 9.99967 15.1673ZM5.99967 1.83398C2.92634 1.83398 1.83301 2.92732 1.83301 6.00065V10.0007C1.83301 13.074 2.92634 14.1673 5.99967 14.1673H9.99967C13.073 14.1673 14.1663 13.074 14.1663 10.0007V6.00065C14.1663 2.92732 13.073 1.83398 9.99967 1.83398H5.99967Z" fill="#0D9488"/>
<path d="M10.3867 12.8344C10.1134 12.8344 9.88672 12.6077 9.88672 12.3344V9.73437C9.88672 9.46104 10.1134 9.23438 10.3867 9.23438C10.6601 9.23438 10.8867 9.46104 10.8867 9.73437V12.3344C10.8867 12.6077 10.6601 12.8344 10.3867 12.8344Z" fill="#0D9488"/>
<path d="M10.3867 5.46602C10.1134 5.46602 9.88672 5.23935 9.88672 4.96602V3.66602C9.88672 3.39268 10.1134 3.16602 10.3867 3.16602C10.6601 3.16602 10.8867 3.39268 10.8867 3.66602V4.96602C10.8867 5.23935 10.6601 5.46602 10.3867 5.46602Z" fill="#0D9488"/>
<path d="M10.3871 8.93346C9.15381 8.93346 8.15381 7.93346 8.15381 6.70013C8.15381 5.4668 9.15381 4.4668 10.3871 4.4668C11.6205 4.4668 12.6205 5.4668 12.6205 6.70013C12.6205 7.93346 11.6138 8.93346 10.3871 8.93346ZM10.3871 5.4668C9.70714 5.4668 9.15381 6.02013 9.15381 6.70013C9.15381 7.38013 9.70714 7.93346 10.3871 7.93346C11.0671 7.93346 11.6205 7.38013 11.6205 6.70013C11.6205 6.02013 11.0605 5.4668 10.3871 5.4668Z" fill="#0D9488"/>
<path d="M5.61377 12.8312C5.34044 12.8312 5.11377 12.6046 5.11377 12.3312V11.0312C5.11377 10.7579 5.34044 10.5312 5.61377 10.5312C5.8871 10.5312 6.11377 10.7579 6.11377 11.0312V12.3312C6.11377 12.6046 5.89377 12.8312 5.61377 12.8312Z" fill="#0D9488"/>
<path d="M5.61377 6.76602C5.34044 6.76602 5.11377 6.53935 5.11377 6.26602V3.66602C5.11377 3.39268 5.34044 3.16602 5.61377 3.16602C5.8871 3.16602 6.11377 3.39268 6.11377 3.66602V6.26602C6.11377 6.53935 5.89377 6.76602 5.61377 6.76602Z" fill="#0D9488"/>
<path d="M5.61273 11.5311C4.37939 11.5311 3.37939 10.5311 3.37939 9.29779C3.37939 8.06445 4.37939 7.06445 5.61273 7.06445C6.84606 7.06445 7.84606 8.06445 7.84606 9.29779C7.84606 10.5311 6.84606 11.5311 5.61273 11.5311ZM5.61273 8.06445C4.93273 8.06445 4.37939 8.61779 4.37939 9.29779C4.37939 9.97779 4.93273 10.5311 5.61273 10.5311C6.29273 10.5311 6.84606 9.97779 6.84606 9.29779C6.84606 8.61779 6.29939 8.06445 5.61273 8.06445Z" fill="#0D9488"/>
</svg>
