<svg width="16" height="16" viewBox="0 0 16 16" fill="none" xmlns="http://www.w3.org/2000/svg">
<path d="M10.0002 15.1673H6.00016C2.38016 15.1673 0.833496 13.6207 0.833496 10.0007V6.00065C0.833496 2.38065 2.38016 0.833984 6.00016 0.833984H10.0002C13.6202 0.833984 15.1668 2.38065 15.1668 6.00065V10.0007C15.1668 13.6207 13.6202 15.1673 10.0002 15.1673ZM6.00016 1.83398C2.92683 1.83398 1.8335 2.92732 1.8335 6.00065V10.0007C1.8335 13.074 2.92683 14.1673 6.00016 14.1673H10.0002C13.0735 14.1673 14.1668 13.074 14.1668 10.0007V6.00065C14.1668 2.92732 13.0735 1.83398 10.0002 1.83398H6.00016Z" fill="#0D9488"/>
<path d="M10.3867 12.8324C10.1134 12.8324 9.88672 12.6058 9.88672 12.3324V9.73242C9.88672 9.45909 10.1134 9.23242 10.3867 9.23242C10.6601 9.23242 10.8867 9.45909 10.8867 9.73242V12.3324C10.8867 12.6058 10.6601 12.8324 10.3867 12.8324Z" fill="#0D9488"/>
<path d="M10.3867 5.46602C10.1134 5.46602 9.88672 5.23935 9.88672 4.96602V3.66602C9.88672 3.39268 10.1134 3.16602 10.3867 3.16602C10.6601 3.16602 10.8867 3.39268 10.8867 3.66602V4.96602C10.8867 5.23935 10.6601 5.46602 10.3867 5.46602Z" fill="#0D9488"/>
<path d="M10.3867 8.93346C9.15332 8.93346 8.15332 7.93346 8.15332 6.70013C8.15332 5.4668 9.15332 4.4668 10.3867 4.4668C11.62 4.4668 12.62 5.4668 12.62 6.70013C12.62 7.93346 11.6133 8.93346 10.3867 8.93346ZM10.3867 5.4668C9.70665 5.4668 9.15332 6.02013 9.15332 6.70013C9.15332 7.38013 9.70665 7.93346 10.3867 7.93346C11.0667 7.93346 11.62 7.38013 11.62 6.70013C11.62 6.02013 11.06 5.4668 10.3867 5.4668Z" fill="#0D9488"/>
<path d="M5.61328 12.8332C5.33995 12.8332 5.11328 12.6065 5.11328 12.3332V11.0332C5.11328 10.7599 5.33995 10.5332 5.61328 10.5332C5.88661 10.5332 6.11328 10.7599 6.11328 11.0332V12.3332C6.11328 12.6065 5.89328 12.8332 5.61328 12.8332Z" fill="#0D9488"/>
<path d="M5.61328 6.76602C5.33995 6.76602 5.11328 6.53935 5.11328 6.26602V3.66602C5.11328 3.39268 5.33995 3.16602 5.61328 3.16602C5.88661 3.16602 6.11328 3.39268 6.11328 3.66602V6.26602C6.11328 6.53935 5.89328 6.76602 5.61328 6.76602Z" fill="#0D9488"/>
<path d="M5.61322 11.5331C4.37988 11.5331 3.37988 10.5331 3.37988 9.29974C3.37988 8.06641 4.37988 7.06641 5.61322 7.06641C6.84655 7.06641 7.84655 8.06641 7.84655 9.29974C7.84655 10.5331 6.84655 11.5331 5.61322 11.5331ZM5.61322 8.06641C4.93322 8.06641 4.37988 8.61974 4.37988 9.29974C4.37988 9.97974 4.93322 10.5331 5.61322 10.5331C6.29322 10.5331 6.84655 9.97974 6.84655 9.29974C6.84655 8.61974 6.29988 8.06641 5.61322 8.06641Z" fill="#0D9488"/>
</svg>
