<svg width="16" height="16" viewBox="0 0 16 16" fill="none" xmlns="http://www.w3.org/2000/svg">
<path d="M13.7466 8.71291C13.4933 8.71291 13.2799 8.51958 13.2466 8.26625C13.0866 6.75958 12.2733 5.39291 11.0199 4.52625C10.7933 4.36625 10.7399 4.05958 10.8933 3.83291C11.0533 3.60625 11.3666 3.55291 11.5866 3.70625C13.0799 4.73958 14.0399 6.36625 14.2333 8.15958C14.2599 8.43291 14.0666 8.67958 13.7866 8.71291C13.7799 8.71291 13.7599 8.71291 13.7466 8.71291Z" fill="#309F6D"/>
<path d="M2.3266 8.74619C2.3066 8.74619 2.29327 8.74619 2.27327 8.74619C1.99994 8.71285 1.79994 8.46619 1.8266 8.19285C2.0066 6.39952 2.95994 4.77952 4.43327 3.73285C4.65994 3.57285 4.97327 3.62619 5.13327 3.85285C5.29327 4.07952 5.23994 4.39285 5.01327 4.55285C3.77327 5.42619 2.97327 6.79285 2.81994 8.29952C2.79994 8.55285 2.57994 8.74619 2.3266 8.74619Z" fill="#309F6D"/>
<path d="M8.04014 15.074C7.05347 15.074 6.11347 14.8473 5.23347 14.4073C4.98681 14.2806 4.88681 13.9806 5.01347 13.734C5.14014 13.4873 5.44014 13.3873 5.68681 13.514C7.12681 14.2406 8.86014 14.254 10.3135 13.554C10.5601 13.434 10.8601 13.5406 10.9801 13.7873C11.1001 14.034 10.9935 14.334 10.7468 14.454C9.89347 14.8673 8.98681 15.074 8.04014 15.074Z" fill="#309F6D"/>
<path d="M8.03986 5.62659C6.73986 5.62659 5.68652 4.57325 5.68652 3.27325C5.68652 1.97325 6.73986 0.919922 8.03986 0.919922C9.33986 0.919922 10.3932 1.97325 10.3932 3.27325C10.3932 4.57325 9.33319 5.62659 8.03986 5.62659ZM8.03986 1.92659C7.29319 1.92659 6.68652 2.53326 6.68652 3.27992C6.68652 4.02659 7.29319 4.63325 8.03986 4.63325C8.78652 4.63325 9.39319 4.02659 9.39319 3.27992C9.39319 2.53326 8.77986 1.92659 8.03986 1.92659Z" fill="#309F6D"/>
<path d="M3.22003 13.7809C1.92003 13.7809 0.866699 12.7276 0.866699 11.4276C0.866699 10.1342 1.92003 9.07422 3.22003 9.07422C4.52003 9.07422 5.57337 10.1276 5.57337 11.4276C5.57337 12.7209 4.52003 13.7809 3.22003 13.7809ZM3.22003 10.0742C2.47337 10.0742 1.8667 10.6809 1.8667 11.4276C1.8667 12.1742 2.47337 12.7809 3.22003 12.7809C3.9667 12.7809 4.57337 12.1742 4.57337 11.4276C4.57337 10.6809 3.9667 10.0742 3.22003 10.0742Z" fill="#309F6D"/>
<path d="M12.7801 13.7809C11.4801 13.7809 10.4268 12.7276 10.4268 11.4276C10.4268 10.1342 11.4801 9.07422 12.7801 9.07422C14.0801 9.07422 15.1334 10.1276 15.1334 11.4276C15.1268 12.7209 14.0734 13.7809 12.7801 13.7809ZM12.7801 10.0742C12.0334 10.0742 11.4268 10.6809 11.4268 11.4276C11.4268 12.1742 12.0334 12.7809 12.7801 12.7809C13.5268 12.7809 14.1334 12.1742 14.1334 11.4276C14.1268 10.6809 13.5268 10.0742 12.7801 10.0742Z" fill="#309F6D"/>
</svg>
