<svg width="16" height="16" viewBox="0 0 16 16" fill="none" xmlns="http://www.w3.org/2000/svg">
<path d="M8.66684 9.83398H8.00018C7.72684 9.83398 7.50018 9.60732 7.50018 9.33398C7.50018 9.06065 7.72684 8.83398 8.00018 8.83398H8.66684C9.12684 8.83398 9.50018 8.46065 9.50018 8.00065V1.83398H4.00018C3.21351 1.83398 2.49349 2.26064 2.10683 2.94731C1.97349 3.18731 1.66685 3.274 1.42685 3.14067C1.18685 3.00733 1.10016 2.70065 1.23349 2.46065C1.79349 1.46065 2.85351 0.833984 4.00018 0.833984H10.0002C10.2735 0.833984 10.5002 1.06065 10.5002 1.33398V8.00065C10.5002 9.01398 9.68018 9.83398 8.66684 9.83398Z" fill="#0D9488"/>
<path d="M12.6663 13.834H11.9997C11.7263 13.834 11.4997 13.6073 11.4997 13.334C11.4997 12.874 11.1263 12.5007 10.6663 12.5007C10.2063 12.5007 9.83301 12.874 9.83301 13.334C9.83301 13.6073 9.60634 13.834 9.33301 13.834H6.66634C6.39301 13.834 6.16634 13.6073 6.16634 13.334C6.16634 12.874 5.79301 12.5007 5.33301 12.5007C4.87301 12.5007 4.49967 12.874 4.49967 13.334C4.49967 13.6073 4.27301 13.834 3.99967 13.834H3.33301C1.95301 13.834 0.833008 12.714 0.833008 11.334C0.833008 11.0607 1.05967 10.834 1.33301 10.834C1.60634 10.834 1.83301 11.0607 1.83301 11.334C1.83301 12.1607 2.50634 12.834 3.33301 12.834H3.56632C3.78632 12.0673 4.49301 11.5007 5.33301 11.5007C6.17301 11.5007 6.87969 12.0673 7.09969 12.834H8.90633C9.12633 12.0673 9.83301 11.5007 10.673 11.5007C11.513 11.5007 12.2197 12.0673 12.4397 12.834H12.6663C13.493 12.834 14.1663 12.1607 14.1663 11.334V9.83398H12.6663C12.0263 9.83398 11.4997 9.30732 11.4997 8.66732V6.66732C11.4997 6.02732 12.0197 5.50065 12.6663 5.50065L11.953 4.25399C11.8063 3.99399 11.5264 3.83398 11.2264 3.83398H10.4997V8.00065C10.4997 9.01398 9.67967 9.83398 8.66634 9.83398H7.99967C7.72634 9.83398 7.49967 9.60732 7.49967 9.33398C7.49967 9.06065 7.72634 8.83398 7.99967 8.83398H8.66634C9.12634 8.83398 9.49967 8.46065 9.49967 8.00065V3.33398C9.49967 3.06065 9.72634 2.83398 9.99967 2.83398H11.2264C11.8864 2.83398 12.493 3.18733 12.8197 3.76066L13.9597 5.75399C14.0463 5.90732 14.0463 6.10065 13.9597 6.25399C13.873 6.40732 13.7063 6.50065 13.5263 6.50065H12.6663C12.573 6.50065 12.4997 6.57398 12.4997 6.66732V8.66732C12.4997 8.76065 12.573 8.83398 12.6663 8.83398H14.6663C14.9397 8.83398 15.1663 9.06065 15.1663 9.33398V11.334C15.1663 12.714 14.0463 13.834 12.6663 13.834Z" fill="#0D9488"/>
<path d="M5.33382 15.1667C4.32049 15.1667 3.50049 14.3467 3.50049 13.3333C3.50049 12.32 4.32049 11.5 5.33382 11.5C6.34715 11.5 7.16715 12.32 7.16715 13.3333C7.16715 14.3467 6.34715 15.1667 5.33382 15.1667ZM5.33382 12.5C4.87382 12.5 4.50049 12.8733 4.50049 13.3333C4.50049 13.7933 4.87382 14.1667 5.33382 14.1667C5.79382 14.1667 6.16715 13.7933 6.16715 13.3333C6.16715 12.8733 5.79382 12.5 5.33382 12.5Z" fill="#0D9488"/>
<path d="M10.6673 15.1667C9.65398 15.1667 8.83398 14.3467 8.83398 13.3333C8.83398 12.32 9.65398 11.5 10.6673 11.5C11.6807 11.5 12.5007 12.32 12.5007 13.3333C12.5007 14.3467 11.6807 15.1667 10.6673 15.1667ZM10.6673 12.5C10.2073 12.5 9.83398 12.8733 9.83398 13.3333C9.83398 13.7933 10.2073 14.1667 10.6673 14.1667C11.1273 14.1667 11.5007 13.7933 11.5007 13.3333C11.5007 12.8733 11.1273 12.5 10.6673 12.5Z" fill="#0D9488"/>
<path d="M14.6667 9.83333H12.6667C12.0267 9.83333 11.5 9.30667 11.5 8.66667V6.66667C11.5 6.02667 12.0267 5.5 12.6667 5.5H13.5267C13.7067 5.5 13.8733 5.59334 13.96 5.75334L15.1 7.75334C15.14 7.82667 15.1667 7.91333 15.1667 8V9.33333C15.1667 9.60667 14.94 9.83333 14.6667 9.83333ZM12.6667 6.5C12.5733 6.5 12.5 6.57333 12.5 6.66667V8.66667C12.5 8.76 12.5733 8.83333 12.6667 8.83333H14.1667V8.13334L13.2333 6.5H12.6667Z" fill="#0D9488"/>
<path d="M5.33301 5.83398H1.33301C1.05967 5.83398 0.833008 5.60732 0.833008 5.33398C0.833008 5.06065 1.05967 4.83398 1.33301 4.83398H5.33301C5.60634 4.83398 5.83301 5.06065 5.83301 5.33398C5.83301 5.60732 5.60634 5.83398 5.33301 5.83398Z" fill="#0D9488"/>
<path d="M3.99967 7.83398H1.33301C1.05967 7.83398 0.833008 7.60732 0.833008 7.33398C0.833008 7.06065 1.05967 6.83398 1.33301 6.83398H3.99967C4.27301 6.83398 4.49967 7.06065 4.49967 7.33398C4.49967 7.60732 4.27301 7.83398 3.99967 7.83398Z" fill="#0D9488"/>
<path d="M2.66634 9.83398H1.33301C1.05967 9.83398 0.833008 9.60732 0.833008 9.33398C0.833008 9.06065 1.05967 8.83398 1.33301 8.83398H2.66634C2.93967 8.83398 3.16634 9.06065 3.16634 9.33398C3.16634 9.60732 2.93967 9.83398 2.66634 9.83398Z" fill="#0D9488"/>
</svg>
