<svg width="16" height="16" viewBox="0 0 16 16" fill="none" xmlns="http://www.w3.org/2000/svg">
<path d="M7.33316 9.83398H7.99982C8.27316 9.83398 8.49982 9.60732 8.49982 9.33398C8.49982 9.06065 8.27316 8.83398 7.99982 8.83398H7.33316C6.87316 8.83398 6.49982 8.46065 6.49982 8.00065V1.83398H11.9998C12.7865 1.83398 13.5065 2.26064 13.8932 2.94731C14.0265 3.18731 14.3331 3.274 14.5731 3.14067C14.8131 3.00733 14.8998 2.70065 14.7665 2.46065C14.2065 1.46065 13.1465 0.833984 11.9998 0.833984H5.99982C5.72649 0.833984 5.49982 1.06065 5.49982 1.33398V8.00065C5.49982 9.01398 6.31982 9.83398 7.33316 9.83398Z" fill="#0D9488"/>
<path d="M3.33366 13.832H4.00033C4.27366 13.832 4.50033 13.6054 4.50033 13.332C4.50033 12.872 4.87366 12.4987 5.33366 12.4987C5.79366 12.4987 6.16699 12.872 6.16699 13.332C6.16699 13.6054 6.39366 13.832 6.66699 13.832H9.33366C9.60699 13.832 9.83366 13.6054 9.83366 13.332C9.83366 12.872 10.207 12.4987 10.667 12.4987C11.127 12.4987 11.5003 12.872 11.5003 13.332C11.5003 13.6054 11.727 13.832 12.0003 13.832H12.667C14.047 13.832 15.167 12.712 15.167 11.332C15.167 11.0587 14.9403 10.832 14.667 10.832C14.3937 10.832 14.167 11.0587 14.167 11.332C14.167 12.1587 13.4937 12.832 12.667 12.832H12.4337C12.2137 12.0654 11.507 11.4987 10.667 11.4987C9.82699 11.4987 9.12031 12.0654 8.90031 12.832H7.09367C6.87367 12.0654 6.16699 11.4987 5.32699 11.4987C4.48699 11.4987 3.78034 12.0654 3.56034 12.832H3.33366C2.50699 12.832 1.83366 12.1587 1.83366 11.332V9.83203H3.33366C3.97366 9.83203 4.50033 9.30536 4.50033 8.66536V6.66536C4.50033 6.02536 3.98033 5.4987 3.33366 5.4987L4.047 4.25203C4.19366 3.99203 4.47364 3.83203 4.77364 3.83203H5.50033V7.9987C5.50033 9.01203 6.32033 9.83203 7.33366 9.83203H8.00033C8.27366 9.83203 8.50033 9.60536 8.50033 9.33203C8.50033 9.0587 8.27366 8.83203 8.00033 8.83203H7.33366C6.87366 8.83203 6.50033 8.4587 6.50033 7.9987V3.33203C6.50033 3.0587 6.27366 2.83203 6.00033 2.83203H4.77364C4.11364 2.83203 3.50701 3.18537 3.18034 3.75871L2.04032 5.75203C1.95366 5.90537 1.95366 6.0987 2.04032 6.25203C2.12699 6.40537 2.29367 6.4987 2.47367 6.4987H3.33366C3.42699 6.4987 3.50033 6.57203 3.50033 6.66536V8.66536C3.50033 8.7587 3.42699 8.83203 3.33366 8.83203H1.33366C1.06033 8.83203 0.83366 9.0587 0.83366 9.33203V11.332C0.83366 12.712 1.95366 13.832 3.33366 13.832Z" fill="#0D9488"/>
<path d="M10.6662 15.1647C11.6795 15.1647 12.4995 14.3447 12.4995 13.3314C12.4995 12.318 11.6795 11.498 10.6662 11.498C9.65285 11.498 8.83285 12.318 8.83285 13.3314C8.83285 14.3447 9.65285 15.1647 10.6662 15.1647ZM10.6662 12.498C11.1262 12.498 11.4995 12.8714 11.4995 13.3314C11.4995 13.7914 11.1262 14.1647 10.6662 14.1647C10.2062 14.1647 9.83285 13.7914 9.83285 13.3314C9.83285 12.8714 10.2062 12.498 10.6662 12.498Z" fill="#0D9488"/>
<path d="M5.33268 15.1647C6.34602 15.1647 7.16602 14.3447 7.16602 13.3314C7.16602 12.318 6.34602 11.498 5.33268 11.498C4.31935 11.498 3.49935 12.318 3.49935 13.3314C3.49935 14.3447 4.31935 15.1647 5.33268 15.1647ZM5.33268 12.498C5.79268 12.498 6.16602 12.8714 6.16602 13.3314C6.16602 13.7914 5.79268 14.1647 5.33268 14.1647C4.87268 14.1647 4.49935 13.7914 4.49935 13.3314C4.49935 12.8714 4.87268 12.498 5.33268 12.498Z" fill="#0D9488"/>
<path d="M1.33333 9.83529H3.33333C3.97333 9.83529 4.5 9.30862 4.5 8.66862V6.66862C4.5 6.02862 3.97333 5.50195 3.33333 5.50195H2.47335C2.29335 5.50195 2.12666 5.59529 2.04 5.75529L0.899983 7.75529C0.859983 7.82862 0.833333 7.91529 0.833333 8.00195V9.33529C0.833333 9.60862 1.06 9.83529 1.33333 9.83529ZM3.33333 6.50195C3.42667 6.50195 3.5 6.57529 3.5 6.66862V8.66862C3.5 8.76195 3.42667 8.83529 3.33333 8.83529H1.83333V8.13529L2.76668 6.50195H3.33333Z" fill="#0D9488"/>
<path d="M10.667 5.83398H14.667C14.9403 5.83398 15.167 5.60732 15.167 5.33398C15.167 5.06065 14.9403 4.83398 14.667 4.83398H10.667C10.3937 4.83398 10.167 5.06065 10.167 5.33398C10.167 5.60732 10.3937 5.83398 10.667 5.83398Z" fill="#0D9488"/>
<path d="M12.0003 7.83203H14.667C14.9403 7.83203 15.167 7.60536 15.167 7.33203C15.167 7.0587 14.9403 6.83203 14.667 6.83203H12.0003C11.727 6.83203 11.5003 7.0587 11.5003 7.33203C11.5003 7.60536 11.727 7.83203 12.0003 7.83203Z" fill="#0D9488"/>
<path d="M13.3337 9.83398H14.667C14.9403 9.83398 15.167 9.60732 15.167 9.33398C15.167 9.06065 14.9403 8.83398 14.667 8.83398H13.3337C13.0603 8.83398 12.8337 9.06065 12.8337 9.33398C12.8337 9.60732 13.0603 9.83398 13.3337 9.83398Z" fill="#0D9488"/>
</svg>
