<svg width="16" height="16" viewBox="0 0 16 16" fill="none" xmlns="http://www.w3.org/2000/svg">
<path d="M14.6663 6.50065C14.393 6.50065 14.1663 6.27398 14.1663 6.00065V4.66732C14.1663 2.94732 13.053 1.83398 11.333 1.83398H4.66634C2.94634 1.83398 1.83301 2.94732 1.83301 4.66732V6.00065C1.83301 6.27398 1.60634 6.50065 1.33301 6.50065C1.05967 6.50065 0.833008 6.27398 0.833008 6.00065V4.66732C0.833008 2.37398 2.37301 0.833984 4.66634 0.833984H11.333C13.6263 0.833984 15.1663 2.37398 15.1663 4.66732V6.00065C15.1663 6.27398 14.9397 6.50065 14.6663 6.50065Z" fill="#0D9488"/>
<path d="M11.333 15.1667H4.66634C2.37301 15.1667 0.833008 13.6267 0.833008 11.3333V10C0.833008 9.72667 1.05967 9.5 1.33301 9.5C1.60634 9.5 1.83301 9.72667 1.83301 10V11.3333C1.83301 13.0533 2.94634 14.1667 4.66634 14.1667H11.333C13.053 14.1667 14.1663 13.0533 14.1663 11.3333V10C14.1663 9.72667 14.393 9.5 14.6663 9.5C14.9397 9.5 15.1663 9.72667 15.1663 10V11.3333C15.1663 13.6267 13.6263 15.1667 11.333 15.1667Z" fill="#0D9488"/>
<path d="M8.0004 8.71997C7.91373 8.71997 7.82706 8.69994 7.74706 8.65328L4.21373 6.61328C3.97373 6.47328 3.89373 6.16663 4.03373 5.92663C4.17373 5.68663 4.4804 5.60662 4.71373 5.74662L7.99373 7.6466L11.2537 5.75997C11.4937 5.61997 11.8004 5.70661 11.9337 5.93994C12.0737 6.17994 11.9871 6.48662 11.7537 6.62662L8.24706 8.65328C8.17373 8.69328 8.08706 8.71997 8.0004 8.71997Z" fill="#0D9488"/>
<path d="M8 12.3474C7.72667 12.3474 7.5 12.1207 7.5 11.8474V8.2207C7.5 7.94737 7.72667 7.7207 8 7.7207C8.27333 7.7207 8.5 7.94737 8.5 8.2207V11.8474C8.5 12.1207 8.27333 12.3474 8 12.3474Z" fill="#0D9488"/>
<path d="M8.00064 12.5005C7.61397 12.5005 7.23397 12.4139 6.92731 12.2472L4.79398 11.0605C4.15398 10.7072 3.66064 9.86053 3.66064 9.12719V6.86718C3.66064 6.14052 4.16064 5.29387 4.79398 4.93387L6.92731 3.74719C7.54064 3.40719 8.46064 3.40719 9.07398 3.74719L11.2073 4.93387C11.8473 5.28721 12.3406 6.13385 12.3406 6.86718V9.12719C12.3406 9.85386 11.8406 10.7005 11.2073 11.0605L9.07398 12.2472C8.76731 12.4139 8.38731 12.5005 8.00064 12.5005ZM7.41397 4.62719L5.28064 5.81384C4.95397 5.99384 4.66064 6.50052 4.66064 6.86718V9.12719C4.66064 9.50053 4.95397 10.0005 5.28064 10.1805L7.41397 11.3672C7.72064 11.5338 8.28064 11.5338 8.58731 11.3672L10.7206 10.1805C11.0473 10.0005 11.3406 9.49386 11.3406 9.12719V6.86718C11.3406 6.49385 11.0473 5.99384 10.7206 5.81384L8.58731 4.62719C8.28064 4.46053 7.72064 4.46053 7.41397 4.62719Z" fill="#0D9488"/>
</svg>
