<svg width="16" height="16" viewBox="0 0 16 16" fill="none" xmlns="http://www.w3.org/2000/svg">
<path d="M8.58683 13.9051H4.54016C2.1735 13.9051 1.3335 12.2451 1.3335 10.6985V5.29846C1.3335 2.9918 2.2335 2.0918 4.54016 2.0918H8.58683C10.8935 2.0918 11.7935 2.9918 11.7935 5.29846V10.6985C11.7935 13.0051 10.8935 13.9051 8.58683 13.9051ZM4.54016 3.10513C2.80016 3.10513 2.34683 3.55846 2.34683 5.29846V10.6985C2.34683 11.5185 2.6335 12.8918 4.54016 12.8918H8.58683C10.3268 12.8918 10.7802 12.4385 10.7802 10.6985V5.29846C10.7802 3.55846 10.3268 3.10513 8.58683 3.10513H4.54016Z" fill="#0D9488"/>
<path d="M13.8533 12.0756C13.5666 12.0756 13.2 11.9823 12.78 11.6889L11 10.4423C10.8666 10.3489 10.7866 10.1956 10.7866 10.0289V5.97561C10.7866 5.80894 10.8666 5.65561 11 5.56228L12.78 4.31561C13.5733 3.76228 14.1533 3.92228 14.4266 4.06228C14.7 4.20894 15.1666 4.58894 15.1666 5.55561V10.4423C15.1666 11.4089 14.7 11.7956 14.4266 11.9356C14.3 12.0089 14.1 12.0756 13.8533 12.0756ZM11.7933 9.76228L13.36 10.8556C13.66 11.0623 13.8733 11.0823 13.96 11.0356C14.0533 10.9889 14.1533 10.8023 14.1533 10.4423V5.56228C14.1533 5.19561 14.0466 5.01561 13.96 4.96894C13.8733 4.92228 13.66 4.94228 13.36 5.14894L11.7933 6.24227V9.76228Z" fill="#0D9488"/>
<path d="M7.6665 7.83398C6.83984 7.83398 6.1665 7.16065 6.1665 6.33398C6.1665 5.50732 6.83984 4.83398 7.6665 4.83398C8.49317 4.83398 9.1665 5.50732 9.1665 6.33398C9.1665 7.16065 8.49317 7.83398 7.6665 7.83398ZM7.6665 5.83398C7.39317 5.83398 7.1665 6.06065 7.1665 6.33398C7.1665 6.60732 7.39317 6.83398 7.6665 6.83398C7.93984 6.83398 8.1665 6.60732 8.1665 6.33398C8.1665 6.06065 7.93984 5.83398 7.6665 5.83398Z" fill="#0D9488"/>
</svg>
