<svg width="16" height="16" viewBox="0 0 16 16" fill="none" xmlns="http://www.w3.org/2000/svg">
<path d="M7.99992 8.71915C7.91325 8.71915 7.82658 8.69915 7.74658 8.65249L4.21325 6.61248C3.97325 6.47248 3.89324 6.16582 4.03324 5.93248C4.17324 5.69248 4.47324 5.61248 4.71991 5.75248L7.99992 7.65249L11.2599 5.76582C11.4999 5.62582 11.8066 5.71248 11.9466 5.94582C12.0866 6.18582 11.9999 6.49249 11.7666 6.62582L8.25993 8.65249C8.17326 8.69249 8.08658 8.71915 7.99992 8.71915Z" fill="#0D9488"/>
<path d="M8 12.3474C7.72667 12.3474 7.5 12.1207 7.5 11.8474V8.2207C7.5 7.94737 7.72667 7.7207 8 7.7207C8.27333 7.7207 8.5 7.94737 8.5 8.2207V11.8474C8.5 12.1207 8.27333 12.3474 8 12.3474Z" fill="#0D9488"/>
<path d="M8.00016 12.5005C7.6135 12.5005 7.23351 12.4139 6.92684 12.2472L4.7935 11.0605C4.1535 10.7072 3.66016 9.86052 3.66016 9.12719V6.86719C3.66016 6.14052 4.16016 5.28719 4.7935 4.93385L6.92684 3.74719C7.54017 3.40719 8.46015 3.40719 9.07349 3.74719L11.2068 4.93385C11.8468 5.28719 12.3402 6.13385 12.3402 6.86719V9.12719C12.3402 9.85385 11.8402 10.7072 11.2068 11.0605L9.07349 12.2472C8.76682 12.4139 8.38683 12.5005 8.00016 12.5005ZM8.00016 4.50052C7.78016 4.50052 7.56683 4.54052 7.41349 4.62719L5.28017 5.81385C4.95351 5.99385 4.66016 6.50052 4.66016 6.86719V9.12719C4.66016 9.50052 4.95351 10.0005 5.28017 10.1805L7.41349 11.3672C7.72016 11.5405 8.28017 11.5405 8.58683 11.3672L10.7202 10.1805C11.0468 10.0005 11.3402 9.49385 11.3402 9.12719V6.86719C11.3402 6.49385 11.0468 5.99385 10.7202 5.81385L8.58683 4.62719C8.4335 4.54052 8.22016 4.50052 8.00016 4.50052Z" fill="#0D9488"/>
<path d="M9.99997 15.1655C9.81997 15.1655 9.6533 15.0655 9.56664 14.9122C9.47997 14.7522 9.47996 14.5655 9.57329 14.4055L10.2733 13.2389C10.4133 13.0055 10.72 12.9255 10.96 13.0655C11.2 13.2055 11.2733 13.5122 11.1333 13.7522L10.9533 14.0522C12.7933 13.6189 14.1733 11.9655 14.1733 9.99219C14.1733 9.71885 14.4 9.49219 14.6733 9.49219C14.9466 9.49219 15.1733 9.71885 15.1733 9.99219C15.1666 12.8455 12.8466 15.1655 9.99997 15.1655Z" fill="#0D9488"/>
<path d="M1.3335 6.50065C1.06016 6.50065 0.833496 6.27398 0.833496 6.00065C0.833496 3.15398 3.1535 0.833984 6.00016 0.833984C6.18016 0.833984 6.34683 0.933983 6.43349 1.08732C6.52016 1.24732 6.52017 1.43398 6.42684 1.59398L5.72683 2.76065C5.58683 2.99398 5.28016 3.07399 5.04016 2.93399C4.80016 2.79399 4.72682 2.48732 4.86682 2.24732L5.04683 1.94732C3.20683 2.38065 1.82682 4.03399 1.82682 6.00732C1.83349 6.27399 1.60683 6.50065 1.3335 6.50065Z" fill="#0D9488"/>
</svg>
