<svg width="16" height="16" viewBox="0 0 16 16" fill="none" xmlns="http://www.w3.org/2000/svg">
<path d="M10.3332 7.5H5.6665C5.39317 7.5 5.1665 7.27333 5.1665 7C5.1665 6.72667 5.39317 6.5 5.6665 6.5H10.3332C10.6065 6.5 10.8332 6.72667 10.8332 7C10.8332 7.27333 10.6065 7.5 10.3332 7.5Z" fill="#309F6D"/>
<path d="M10.6668 14.8803C10.4402 14.8803 10.2135 14.8136 10.0202 14.687L7.18016 12.7936H4.66683C2.3735 12.7936 0.833496 11.2536 0.833496 8.96029V4.96029C0.833496 2.66695 2.3735 1.12695 4.66683 1.12695H11.3335C13.6268 1.12695 15.1668 2.66695 15.1668 4.96029V8.96029C15.1668 11.0803 13.8468 12.5603 11.8335 12.767V13.7136C11.8335 14.147 11.6002 14.5403 11.2202 14.7403C11.0468 14.8336 10.8535 14.8803 10.6668 14.8803ZM4.66683 2.12028C2.94683 2.12028 1.8335 3.23361 1.8335 4.95361V8.95361C1.8335 10.6736 2.94683 11.7869 4.66683 11.7869H7.3335C7.4335 11.7869 7.52684 11.8136 7.61351 11.8736L10.5802 13.847C10.6535 13.8936 10.7202 13.8736 10.7535 13.8536C10.7868 13.8336 10.8402 13.7936 10.8402 13.7069V12.2869C10.8402 12.0136 11.0668 11.7869 11.3402 11.7869C13.0602 11.7869 14.1735 10.6736 14.1735 8.95361V4.95361C14.1735 3.23361 13.0602 2.12028 11.3402 2.12028H4.66683Z" fill="#309F6D"/>
</svg>
