<svg width="16" height="16" viewBox="0 0 16 16" fill="none" xmlns="http://www.w3.org/2000/svg">
<path d="M8.66655 7.83414C8.53988 7.83414 8.41321 7.78747 8.31321 7.68747C8.11988 7.49414 8.11988 7.17414 8.31321 6.98081L13.7799 1.51414C13.9732 1.32081 14.2932 1.32081 14.4865 1.51414C14.6799 1.70747 14.6799 2.02747 14.4865 2.22081L9.01988 7.68747C8.91988 7.78747 8.79321 7.83414 8.66655 7.83414Z" fill="#1E1E1E"/>
<path d="M14.6666 5.03398C14.3932 5.03398 14.1666 4.80732 14.1666 4.53398V1.83398H11.4666C11.1932 1.83398 10.9666 1.60732 10.9666 1.33398C10.9666 1.06065 11.1932 0.833984 11.4666 0.833984H14.6666C14.9399 0.833984 15.1666 1.06065 15.1666 1.33398V4.53398C15.1666 4.80732 14.9399 5.03398 14.6666 5.03398Z" fill="#1E1E1E"/>
<path d="M9.99992 15.1673H5.99992C2.37992 15.1673 0.833252 13.6207 0.833252 10.0007V6.00065C0.833252 2.38065 2.37992 0.833984 5.99992 0.833984H7.33325C7.60659 0.833984 7.83325 1.06065 7.83325 1.33398C7.83325 1.60732 7.60659 1.83398 7.33325 1.83398H5.99992C2.92659 1.83398 1.83325 2.92732 1.83325 6.00065V10.0007C1.83325 13.074 2.92659 14.1673 5.99992 14.1673H9.99992C13.0733 14.1673 14.1666 13.074 14.1666 10.0007V8.66732C14.1666 8.39398 14.3933 8.16732 14.6666 8.16732C14.9399 8.16732 15.1666 8.39398 15.1666 8.66732V10.0007C15.1666 13.6207 13.6199 15.1673 9.99992 15.1673Z" fill="#1E1E1E"/>
</svg>
