<svg width="52" height="52" viewBox="0 0 52 52" fill="none" xmlns="http://www.w3.org/2000/svg">
<rect x="0.5" y="0.5" width="51" height="51" rx="25.5" stroke="#D9D9D9"/>
<path d="M26.4599 36.7501C26.2899 36.7501 26.1199 36.7501 25.9499 36.7401C20.3499 36.4901 15.6699 31.9801 15.2799 26.4801C14.9399 21.7601 17.6699 17.3501 22.0699 15.5001C23.3199 14.9801 23.9799 15.3801 24.2599 15.6701C24.5399 15.9501 24.9299 16.6001 24.4099 17.7901C23.9499 18.8501 23.7199 19.9801 23.7299 21.1401C23.7499 25.5701 27.4299 29.3301 31.9199 29.5101C32.5699 29.5401 33.2099 29.4901 33.8299 29.3801C35.1499 29.1401 35.6999 29.6701 35.9099 30.0101C36.1199 30.3501 36.3599 31.0801 35.5599 32.1601C33.4399 35.0601 30.0699 36.7501 26.4599 36.7501ZM16.7699 26.3701C17.1099 31.1301 21.1699 35.0301 26.0099 35.2401C29.2999 35.4001 32.4199 33.9001 34.3399 31.2801C34.4899 31.0701 34.5599 30.9201 34.5899 30.8401C34.4999 30.8301 34.3399 30.8201 34.0899 30.8701C33.3599 31.0001 32.5999 31.0501 31.8499 31.0201C26.5699 30.8101 22.2499 26.3801 22.2199 21.1601C22.2199 19.7801 22.4899 18.4501 23.0399 17.2001C23.1399 16.9801 23.1599 16.8301 23.1699 16.7501C23.0799 16.7501 22.9199 16.7701 22.6599 16.8801C18.8499 18.4801 16.4899 22.3001 16.7699 26.3701Z" fill="#16151C"/>
</svg>
