<svg width="52" height="52" viewBox="0 0 52 52" fill="none" xmlns="http://www.w3.org/2000/svg">
<rect x="0.5" y="0.5" width="51" height="51" rx="25.5" stroke="#D9D9D9"/>
<path d="M26 25.5199C25.59 25.5199 25.25 25.1799 25.25 24.7699V21.4399C25.25 21.0299 25.59 20.6899 26 20.6899C26.41 20.6899 26.75 21.0299 26.75 21.4399V24.7699C26.75 25.1899 26.41 25.5199 26 25.5199Z" fill="black"/>
<path d="M26.0199 35.3502C23.4399 35.3502 20.8699 34.9402 18.4199 34.1202C17.5099 33.8202 16.8199 33.1702 16.5199 32.3502C16.2199 31.5302 16.3199 30.5902 16.8099 29.7702L18.0799 27.6502C18.3599 27.1802 18.6099 26.3002 18.6099 25.7502V23.6502C18.6099 19.5602 21.9299 16.2402 26.0199 16.2402C30.1099 16.2402 33.4299 19.5602 33.4299 23.6502V25.7502C33.4299 26.2902 33.6799 27.1802 33.9599 27.6502L35.2299 29.7702C35.6999 30.5502 35.7799 31.4802 35.4699 32.3302C35.1599 33.1802 34.4799 33.8302 33.6199 34.1202C31.1699 34.9502 28.5999 35.3502 26.0199 35.3502ZM26.0199 17.7502C22.7599 17.7502 20.1099 20.4002 20.1099 23.6602V25.7602C20.1099 26.5702 19.7899 27.7402 19.3699 28.4302L18.0999 30.5602C17.8399 30.9902 17.7799 31.4502 17.9299 31.8502C18.0799 32.2502 18.4199 32.5502 18.8999 32.7102C23.4999 34.2402 28.5599 34.2402 33.1599 32.7102C33.5899 32.5702 33.9199 32.2502 34.0699 31.8302C34.2299 31.4102 34.1799 30.9502 33.9499 30.5602L32.6799 28.4402C32.2599 27.7502 31.9399 26.5802 31.9399 25.7702V23.6702C31.9299 20.4002 29.2799 17.7502 26.0199 17.7502Z" fill="black"/>
<path d="M25.9999 37.8998C24.9299 37.8998 23.8799 37.4598 23.1199 36.6998C22.3599 35.9398 21.9199 34.8898 21.9199 33.8198H23.4199C23.4199 34.4998 23.6999 35.1598 24.1799 35.6398C24.6599 36.1198 25.3199 36.3998 25.9999 36.3998C27.4199 36.3998 28.5799 35.2398 28.5799 33.8198H30.0799C30.0799 36.0698 28.2499 37.8998 25.9999 37.8998Z" fill="black"/>
</svg>
