<svg width="52" height="52" viewBox="0 0 52 52" fill="none" xmlns="http://www.w3.org/2000/svg">
<circle cx="26" cy="26" r="26" fill="#309F6D"/>
<mask id="mask0_16619_27454" style="mask-type:luminance" maskUnits="userSpaceOnUse" x="9" y="8" width="33" height="35">
<path d="M9.26318 8H41.6924V42.3215H9.26318V8Z" fill="white"/>
</mask>
<g mask="url(#mask0_16619_27454)">
<mask id="mask1_16619_27454" style="mask-type:luminance" maskUnits="userSpaceOnUse" x="9" y="7" width="33" height="36">
<path d="M15.5781 30.5455C15.2307 29.9491 15.4373 29.1848 16.0429 28.84C16.6486 28.4904 17.4139 28.7002 17.7661 29.3013C18.1135 29.9025 17.9022 30.6621 17.3012 31.0069C17.104 31.1234 16.8787 31.17 16.6721 31.17C16.2401 31.17 15.8129 30.951 15.5781 30.5455ZM19.9305 26.8315C19.3953 25.8715 17.3482 26.1837 18.0102 27.5584C17.1933 27.1064 16.1697 27.0738 15.3105 27.5678C14.01 28.318 13.5639 29.9677 14.3104 31.2632C15.0523 32.554 16.7284 32.9968 18.0337 32.2558C18.8929 31.7572 19.3812 30.8718 19.3953 29.9491C20.2545 31.2073 21.5691 29.5996 20.9963 28.6536C21.5315 28.2621 22.5692 27.605 23.5364 27.0272C23.5786 26.3328 23.6021 25.6525 23.6256 24.9348C22.4753 25.5826 20.7662 26.4587 19.9399 26.8175M33.5511 30.9976C32.9454 30.6527 32.7341 29.8885 33.0816 29.2873C33.4337 28.6862 34.199 28.4905 34.8047 28.826C35.4103 29.1615 35.6216 29.9351 35.2695 30.5362C35.0394 30.9417 34.6169 31.1607 34.1755 31.1607C33.9689 31.1607 33.7483 31.1001 33.5511 30.9976ZM27.3159 27.0272C28.2784 27.605 29.3161 28.2621 29.8513 28.6536C29.2785 29.5902 30.5837 31.1933 31.443 29.9491C31.457 30.8718 31.9453 31.7572 32.8045 32.2558C34.1051 33.0061 35.7719 32.554 36.5278 31.2632C37.2837 29.9677 36.8283 28.3087 35.5277 27.5678C34.6638 27.0738 33.6403 27.1064 32.828 27.5584C33.49 26.1837 31.443 25.8622 30.9077 26.8315C30.072 26.4726 28.3723 25.5965 27.222 24.9488C27.2314 25.6525 27.269 26.3328 27.3159 27.0365M24.1514 14.869C24.1514 14.1747 24.7101 13.6201 25.405 13.6201C26.1046 13.6201 26.6633 14.1747 26.6633 14.869C26.6633 15.5634 26.1046 16.1179 25.405 16.1179C24.7101 16.1179 24.1514 15.5494 24.1514 14.869ZM22.6865 14.869C22.6865 15.8616 23.2218 16.7284 24.0247 17.1991C22.4894 17.3156 23.2453 19.2448 24.3486 19.2215C24.466 20.2281 24.5223 22.5488 24.5223 23.8164C24.5223 28.5371 23.8697 34.3202 22.2311 35.8813C21.0573 35.9746 19.6723 35.8114 18.2168 35.42C16.658 35.0053 15.3434 34.3808 14.3433 33.6631C13.1601 33.8263 12.1366 34.1245 11.3431 34.5439C13.1226 36.0771 15.1227 37.5217 17.3247 38.7799C19.9164 40.2665 22.7664 41.4781 25.3956 42.275C28.0014 41.4781 30.8748 40.2665 33.4666 38.7799C35.6639 37.5217 37.6687 36.0771 39.4481 34.5439C38.6547 34.1245 37.6311 33.8123 36.4433 33.6631C35.4573 34.3901 34.1427 35.0053 32.5698 35.42C31.1284 35.8021 29.7339 35.9606 28.5602 35.8674C26.9169 34.3016 26.2689 28.5277 26.2689 23.8071C26.2689 22.5349 26.3253 20.2141 26.4426 19.2122C27.546 19.2355 28.3019 17.3062 26.7666 17.1897C27.5695 16.7144 28.1047 15.8523 28.1047 14.8597C28.1047 13.3685 26.884 12.1568 25.3816 12.1568C23.8838 12.1568 22.6631 13.3685 22.6631 14.8597M17.3341 11.0244C14.672 12.5483 12.2962 14.3051 10.2492 16.2204C9.61062 18.9326 9.26318 21.8405 9.26318 24.9022C9.26318 27.4279 9.53081 29.8652 9.97215 32.1626C10.7281 31.6919 11.5075 30.965 12.2399 30.0283C12.099 28.8167 12.2164 27.372 12.6343 25.8249C13.0193 24.3942 13.578 23.1127 14.24 22.1527C16.0336 21.6448 19.9728 23.0987 23.6162 24.9488C23.6256 24.5573 23.6256 24.1985 23.6256 23.8071C23.6256 23.4948 23.6256 23.1127 23.6162 22.698C20.555 20.6429 17.8365 18.3082 17.428 16.6725C17.9398 15.6193 18.7755 14.5009 19.8366 13.4477C20.9728 12.3199 22.1748 11.4998 23.3016 11.0011C23.757 9.90602 24.0012 8.86682 24.034 7.99072C21.8133 8.7643 19.5455 9.7569 17.3482 11.0151M27.546 11.0011C28.6775 11.4998 29.8748 12.3199 31.011 13.4477C32.0721 14.5009 32.9078 15.6193 33.4196 16.6725C33.0158 18.2988 30.2927 20.6289 27.2314 22.698C27.222 23.0987 27.222 23.4809 27.222 23.8071C27.222 24.1845 27.222 24.5573 27.2314 24.9488C30.8608 23.0987 34.8188 21.6448 36.6076 22.1527C37.2696 23.1127 37.8283 24.3942 38.2133 25.8249C38.6312 27.372 38.7486 28.8167 38.6077 30.0283C39.3402 30.965 40.1196 31.6919 40.8755 32.1626C41.3168 29.8652 41.5844 27.4186 41.5844 24.9022C41.5844 21.8405 41.237 18.9326 40.5985 16.2204C38.5514 14.3145 36.1756 12.5483 33.5135 11.0244C31.2927 9.76622 29.0344 8.77362 26.8042 8.00004C26.837 8.87614 27.0812 9.91534 27.5366 11.0151" fill="white"/>
</mask>
<g mask="url(#mask1_16619_27454)">
<mask id="mask2_16619_27454" style="mask-type:luminance" maskUnits="userSpaceOnUse" x="9" y="8" width="34" height="35">
<path d="M42.6547 8H9V42.5965H42.6547V8Z" fill="white"/>
</mask>
<g mask="url(#mask2_16619_27454)">
<mask id="mask3_16619_27454" style="mask-type:luminance" maskUnits="userSpaceOnUse" x="9" y="8" width="33" height="35">
<path d="M9.26318 8H41.6455V42.3215H9.26318V8Z" fill="white"/>
</mask>
<g mask="url(#mask3_16619_27454)">
<mask id="mask4_16619_27454" style="mask-type:luminance" maskUnits="userSpaceOnUse" x="9" y="7" width="33" height="36">
<path d="M15.5781 30.5455C15.2307 29.9491 15.4373 29.1848 16.0429 28.84C16.6486 28.4904 17.4139 28.7002 17.7661 29.3013C18.1135 29.9025 17.9022 30.6621 17.3012 31.0069C17.104 31.1234 16.8787 31.17 16.6721 31.17C16.2401 31.17 15.8129 30.951 15.5781 30.5455ZM19.9305 26.8315C19.3953 25.8715 17.3482 26.1837 18.0102 27.5584C17.1933 27.1064 16.1697 27.0738 15.3105 27.5678C14.01 28.318 13.5639 29.9677 14.3104 31.2632C15.0523 32.554 16.7284 32.9968 18.0337 32.2558C18.8929 31.7572 19.3812 30.8718 19.3953 29.9491C20.2545 31.2073 21.5691 29.5996 20.9963 28.6536C21.5315 28.2621 22.5692 27.605 23.5364 27.0272C23.5786 26.3328 23.6021 25.6525 23.6256 24.9348C22.4753 25.5826 20.7662 26.4587 19.9399 26.8175M33.5511 30.9976C32.9454 30.6527 32.7341 29.8885 33.0816 29.2873C33.4337 28.6862 34.199 28.4905 34.8047 28.826C35.4103 29.1615 35.6216 29.9351 35.2695 30.5362C35.0394 30.9417 34.6169 31.1607 34.1755 31.1607C33.9689 31.1607 33.7483 31.1001 33.5511 30.9976ZM27.3159 27.0272C28.2784 27.605 29.3161 28.2621 29.8513 28.6536C29.2785 29.5902 30.5837 31.1933 31.443 29.9491C31.457 30.8718 31.9453 31.7572 32.8045 32.2558C34.1051 33.0061 35.7719 32.554 36.5278 31.2632C37.2837 29.9677 36.8283 28.3087 35.5277 27.5678C34.6638 27.0738 33.6403 27.1064 32.828 27.5584C33.49 26.1837 31.443 25.8622 30.9077 26.8315C30.072 26.4726 28.3723 25.5965 27.222 24.9488C27.2314 25.6525 27.269 26.3328 27.3159 27.0365M24.1514 14.869C24.1514 14.1747 24.7101 13.6201 25.405 13.6201C26.1046 13.6201 26.6633 14.1747 26.6633 14.869C26.6633 15.5634 26.1046 16.1179 25.405 16.1179C24.7101 16.1179 24.1514 15.5494 24.1514 14.869ZM22.6865 14.869C22.6865 15.8616 23.2218 16.7284 24.0247 17.1991C22.4894 17.3156 23.2453 19.2448 24.3486 19.2215C24.466 20.2281 24.5223 22.5488 24.5223 23.8164C24.5223 28.5371 23.8697 34.3202 22.2311 35.8813C21.0573 35.9746 19.6723 35.8114 18.2168 35.42C16.658 35.0053 15.3434 34.3808 14.3433 33.6631C13.1601 33.8263 12.1366 34.1245 11.3431 34.5439C13.1226 36.0771 15.1227 37.5217 17.3247 38.7799C19.9164 40.2665 22.7664 41.4781 25.3956 42.275C28.0014 41.4781 30.8748 40.2665 33.4666 38.7799C35.6639 37.5217 37.6687 36.0771 39.4481 34.5439C38.6547 34.1245 37.6311 33.8123 36.4433 33.6631C35.4573 34.3901 34.1427 35.0053 32.5698 35.42C31.1284 35.8021 29.7339 35.9606 28.5602 35.8674C26.9169 34.3016 26.2689 28.5277 26.2689 23.8071C26.2689 22.5349 26.3253 20.2141 26.4426 19.2122C27.546 19.2355 28.3019 17.3062 26.7666 17.1897C27.5695 16.7144 28.1047 15.8523 28.1047 14.8597C28.1047 13.3685 26.884 12.1568 25.3816 12.1568C23.8838 12.1568 22.6631 13.3685 22.6631 14.8597M17.3341 11.0244C14.672 12.5483 12.2962 14.3051 10.2492 16.2204C9.61062 18.9326 9.26318 21.8405 9.26318 24.9022C9.26318 27.4279 9.53081 29.8652 9.97215 32.1626C10.7281 31.6919 11.5075 30.965 12.2399 30.0283C12.099 28.8167 12.2164 27.372 12.6343 25.8249C13.0193 24.3942 13.578 23.1127 14.24 22.1527C16.0336 21.6448 19.9728 23.0987 23.6162 24.9488C23.6256 24.5573 23.6256 24.1985 23.6256 23.8071C23.6256 23.4948 23.6256 23.1127 23.6162 22.698C20.555 20.6429 17.8365 18.3082 17.428 16.6725C17.9398 15.6193 18.7755 14.5009 19.8366 13.4477C20.9728 12.3199 22.1748 11.4998 23.3016 11.0011C23.757 9.90602 24.0012 8.86682 24.034 7.99072C21.8133 8.7643 19.5455 9.7569 17.3482 11.0151M27.546 11.0011C28.6775 11.4998 29.8748 12.3199 31.011 13.4477C32.0721 14.5009 32.9078 15.6193 33.4196 16.6725C33.0158 18.2988 30.2927 20.6289 27.2314 22.698C27.222 23.0987 27.222 23.4809 27.222 23.8071C27.222 24.1845 27.222 24.5573 27.2314 24.9488C30.8608 23.0987 34.8188 21.6448 36.6076 22.1527C37.2696 23.1127 37.8283 24.3942 38.2133 25.8249C38.6312 27.372 38.7486 28.8167 38.6077 30.0283C39.3402 30.965 40.1196 31.6919 40.8755 32.1626C41.3168 29.8652 41.5844 27.4186 41.5844 24.9022C41.5844 21.8405 41.237 18.9326 40.5985 16.2204C38.5514 14.3145 36.1756 12.5483 33.5135 11.0244C31.2927 9.76622 29.0344 8.77362 26.8042 8.00004C26.837 8.87614 27.0812 9.91534 27.5366 11.0151" fill="white"/>
</mask>
<g mask="url(#mask4_16619_27454)">
<path d="M9.26318 8H41.5656V42.3215H9.26318V8Z" fill="white"/>
</g>
</g>
</g>
<mask id="mask5_16619_27454" style="mask-type:luminance" maskUnits="userSpaceOnUse" x="9" y="8" width="34" height="35">
<path d="M42.6547 8H9V42.5965H42.6547V8Z" fill="white"/>
</mask>
<g mask="url(#mask5_16619_27454)">
<mask id="mask6_16619_27454" style="mask-type:luminance" maskUnits="userSpaceOnUse" x="9" y="8" width="33" height="35">
<path d="M9.26318 8H41.6455V42.3215H9.26318V8Z" fill="white"/>
</mask>
<g mask="url(#mask6_16619_27454)">
<mask id="mask7_16619_27454" style="mask-type:luminance" maskUnits="userSpaceOnUse" x="9" y="7" width="33" height="36">
<path d="M15.5781 30.5455C15.2307 29.9491 15.4373 29.1848 16.0429 28.84C16.6486 28.4904 17.4139 28.7002 17.7661 29.3013C18.1135 29.9025 17.9022 30.6621 17.3012 31.0069C17.104 31.1234 16.8787 31.17 16.6721 31.17C16.2401 31.17 15.8129 30.951 15.5781 30.5455ZM19.9305 26.8315C19.3953 25.8715 17.3482 26.1837 18.0102 27.5584C17.1933 27.1064 16.1697 27.0738 15.3105 27.5678C14.01 28.318 13.5639 29.9677 14.3104 31.2632C15.0523 32.554 16.7284 32.9968 18.0337 32.2558C18.8929 31.7572 19.3812 30.8718 19.3953 29.9491C20.2545 31.2073 21.5691 29.5996 20.9963 28.6536C21.5315 28.2621 22.5692 27.605 23.5364 27.0272C23.5786 26.3328 23.6021 25.6525 23.6256 24.9348C22.4753 25.5826 20.7662 26.4587 19.9399 26.8175M33.5511 30.9976C32.9454 30.6527 32.7341 29.8885 33.0816 29.2873C33.4337 28.6862 34.199 28.4905 34.8047 28.826C35.4103 29.1615 35.6216 29.9351 35.2695 30.5362C35.0394 30.9417 34.6169 31.1607 34.1755 31.1607C33.9689 31.1607 33.7483 31.1001 33.5511 30.9976ZM27.3159 27.0272C28.2784 27.605 29.3161 28.2621 29.8513 28.6536C29.2785 29.5902 30.5837 31.1933 31.443 29.9491C31.457 30.8718 31.9453 31.7572 32.8045 32.2558C34.1051 33.0061 35.7719 32.554 36.5278 31.2632C37.2837 29.9677 36.8283 28.3087 35.5277 27.5678C34.6638 27.0738 33.6403 27.1064 32.828 27.5584C33.49 26.1837 31.443 25.8622 30.9077 26.8315C30.072 26.4726 28.3723 25.5965 27.222 24.9488C27.2314 25.6525 27.269 26.3328 27.3159 27.0365M24.1514 14.869C24.1514 14.1747 24.7101 13.6201 25.405 13.6201C26.1046 13.6201 26.6633 14.1747 26.6633 14.869C26.6633 15.5634 26.1046 16.1179 25.405 16.1179C24.7101 16.1179 24.1514 15.5494 24.1514 14.869ZM22.6865 14.869C22.6865 15.8616 23.2218 16.7284 24.0247 17.1991C22.4894 17.3156 23.2453 19.2448 24.3486 19.2215C24.466 20.2281 24.5223 22.5488 24.5223 23.8164C24.5223 28.5371 23.8697 34.3202 22.2311 35.8813C21.0573 35.9746 19.6723 35.8114 18.2168 35.42C16.658 35.0053 15.3434 34.3808 14.3433 33.6631C13.1601 33.8263 12.1366 34.1245 11.3431 34.5439C13.1226 36.0771 15.1227 37.5217 17.3247 38.7799C19.9164 40.2665 22.7664 41.4781 25.3956 42.275C28.0014 41.4781 30.8748 40.2665 33.4666 38.7799C35.6639 37.5217 37.6687 36.0771 39.4481 34.5439C38.6547 34.1245 37.6311 33.8123 36.4433 33.6631C35.4573 34.3901 34.1427 35.0053 32.5698 35.42C31.1284 35.8021 29.7339 35.9606 28.5602 35.8674C26.9169 34.3016 26.2689 28.5277 26.2689 23.8071C26.2689 22.5349 26.3253 20.2141 26.4426 19.2122C27.546 19.2355 28.3019 17.3062 26.7666 17.1897C27.5695 16.7144 28.1047 15.8523 28.1047 14.8597C28.1047 13.3685 26.884 12.1568 25.3816 12.1568C23.8838 12.1568 22.6631 13.3685 22.6631 14.8597M17.3341 11.0244C14.672 12.5483 12.2962 14.3051 10.2492 16.2204C9.61062 18.9326 9.26318 21.8405 9.26318 24.9022C9.26318 27.4279 9.53081 29.8652 9.97215 32.1626C10.7281 31.6919 11.5075 30.965 12.2399 30.0283C12.099 28.8167 12.2164 27.372 12.6343 25.8249C13.0193 24.3942 13.578 23.1127 14.24 22.1527C16.0336 21.6448 19.9728 23.0987 23.6162 24.9488C23.6256 24.5573 23.6256 24.1985 23.6256 23.8071C23.6256 23.4948 23.6256 23.1127 23.6162 22.698C20.555 20.6429 17.8365 18.3082 17.428 16.6725C17.9398 15.6193 18.7755 14.5009 19.8366 13.4477C20.9728 12.3199 22.1748 11.4998 23.3016 11.0011C23.757 9.90602 24.0012 8.86682 24.034 7.99072C21.8133 8.7643 19.5455 9.7569 17.3482 11.0151M27.546 11.0011C28.6775 11.4998 29.8748 12.3199 31.011 13.4477C32.0721 14.5009 32.9078 15.6193 33.4196 16.6725C33.0158 18.2988 30.2927 20.6289 27.2314 22.698C27.222 23.0987 27.222 23.4809 27.222 23.8071C27.222 24.1845 27.222 24.5573 27.2314 24.9488C30.8608 23.0987 34.8188 21.6448 36.6076 22.1527C37.2696 23.1127 37.8283 24.3942 38.2133 25.8249C38.6312 27.372 38.7486 28.8167 38.6077 30.0283C39.3402 30.965 40.1196 31.6919 40.8755 32.1626C41.3168 29.8652 41.5844 27.4186 41.5844 24.9022C41.5844 21.8405 41.237 18.9326 40.5985 16.2204C38.5514 14.3145 36.1756 12.5483 33.5135 11.0244C31.2927 9.76622 29.0344 8.77362 26.8042 8.00004C26.837 8.87614 27.0812 9.91534 27.5366 11.0151" fill="white"/>
</mask>
<g mask="url(#mask7_16619_27454)">
<path d="M9.26318 8H41.5656V42.3215H9.26318V8Z" fill="white"/>
</g>
</g>
</g>
</g>
</g>
</svg>
