<svg width="52" height="52" viewBox="0 0 52 52" fill="none" xmlns="http://www.w3.org/2000/svg">
<rect x="0.5" y="0.5" width="51" height="51" rx="25.5" stroke="#D9D9D9"/>
<path d="M26 29.75C23.93 29.75 22.25 28.07 22.25 26C22.25 23.93 23.93 22.25 26 22.25C28.07 22.25 29.75 23.93 29.75 26C29.75 28.07 28.07 29.75 26 29.75ZM26 23.75C24.76 23.75 23.75 24.76 23.75 26C23.75 27.24 24.76 28.25 26 28.25C27.24 28.25 28.25 27.24 28.25 26C28.25 24.76 27.24 23.75 26 23.75Z" fill="black"/>
<path d="M29.21 36.1898C29 36.1898 28.79 36.1598 28.58 36.1098C27.96 35.9398 27.44 35.5498 27.11 34.9998L26.99 34.7998C26.4 33.7798 25.59 33.7798 25 34.7998L24.89 34.9898C24.56 35.5498 24.04 35.9498 23.42 36.1098C22.79 36.2798 22.14 36.1898 21.59 35.8598L19.87 34.8698C19.26 34.5198 18.82 33.9498 18.63 33.2598C18.45 32.5698 18.54 31.8598 18.89 31.2498C19.18 30.7398 19.26 30.2798 19.09 29.9898C18.92 29.6998 18.49 29.5298 17.9 29.5298C16.44 29.5298 15.25 28.3398 15.25 26.8798V25.1198C15.25 23.6598 16.44 22.4698 17.9 22.4698C18.49 22.4698 18.92 22.2998 19.09 22.0098C19.26 21.7198 19.19 21.2598 18.89 20.7498C18.54 20.1398 18.45 19.4198 18.63 18.7398C18.81 18.0498 19.25 17.4798 19.87 17.1298L21.6 16.1398C22.73 15.4698 24.22 15.8598 24.9 17.0098L25.02 17.2098C25.61 18.2298 26.42 18.2298 27.01 17.2098L27.12 17.0198C27.8 15.8598 29.29 15.4698 30.43 16.1498L32.15 17.1398C32.76 17.4898 33.2 18.0598 33.39 18.7498C33.57 19.4398 33.48 20.1498 33.13 20.7598C32.84 21.2698 32.76 21.7298 32.93 22.0198C33.1 22.3098 33.53 22.4798 34.12 22.4798C35.58 22.4798 36.77 23.6698 36.77 25.1298V26.8898C36.77 28.3498 35.58 29.5398 34.12 29.5398C33.53 29.5398 33.1 29.7098 32.93 29.9998C32.76 30.2898 32.83 30.7498 33.13 31.2598C33.48 31.8698 33.58 32.5898 33.39 33.2698C33.21 33.9598 32.77 34.5298 32.15 34.8798L30.42 35.8698C30.04 36.0798 29.63 36.1898 29.21 36.1898ZM26 32.4898C26.89 32.4898 27.72 33.0498 28.29 34.0398L28.4 34.2298C28.52 34.4398 28.72 34.5898 28.96 34.6498C29.2 34.7098 29.44 34.6798 29.64 34.5598L31.37 33.5598C31.63 33.4098 31.83 33.1598 31.91 32.8598C31.99 32.5598 31.95 32.2498 31.8 31.9898C31.23 31.0098 31.16 29.9998 31.6 29.2298C32.04 28.4598 32.95 28.0198 34.09 28.0198C34.73 28.0198 35.24 27.5098 35.24 26.8698V25.1098C35.24 24.4798 34.73 23.9598 34.09 23.9598C32.95 23.9598 32.04 23.5198 31.6 22.7498C31.16 21.9798 31.23 20.9698 31.8 19.9898C31.95 19.7298 31.99 19.4198 31.91 19.1198C31.83 18.8198 31.64 18.5798 31.38 18.4198L29.65 17.4298C29.22 17.1698 28.65 17.3198 28.39 17.7598L28.28 17.9498C27.71 18.9398 26.88 19.4998 25.99 19.4998C25.1 19.4998 24.27 18.9398 23.7 17.9498L23.59 17.7498C23.34 17.3298 22.78 17.1798 22.35 17.4298L20.62 18.4298C20.36 18.5798 20.16 18.8298 20.08 19.1298C20 19.4298 20.04 19.7398 20.19 19.9998C20.76 20.9798 20.83 21.9898 20.39 22.7598C19.95 23.5298 19.04 23.9698 17.9 23.9698C17.26 23.9698 16.75 24.4798 16.75 25.1198V26.8798C16.75 27.5098 17.26 28.0298 17.9 28.0298C19.04 28.0298 19.95 28.4698 20.39 29.2398C20.83 30.0098 20.76 31.0198 20.19 31.9998C20.04 32.2598 20 32.5698 20.08 32.8698C20.16 33.1698 20.35 33.4098 20.61 33.5698L22.34 34.5598C22.55 34.6898 22.8 34.7198 23.03 34.6598C23.27 34.5998 23.47 34.4398 23.6 34.2298L23.71 34.0398C24.28 33.0598 25.11 32.4898 26 32.4898Z" fill="black"/>
</svg>
