<svg width="16" height="16" viewBox="0 0 16 16" fill="none" xmlns="http://www.w3.org/2000/svg">
<path d="M5.3335 3.83398C5.06016 3.83398 4.8335 3.60732 4.8335 3.33398V1.33398C4.8335 1.06065 5.06016 0.833984 5.3335 0.833984C5.60683 0.833984 5.8335 1.06065 5.8335 1.33398V3.33398C5.8335 3.60732 5.60683 3.83398 5.3335 3.83398Z" fill="#383838"/>
<path d="M10.6665 3.83398C10.3932 3.83398 10.1665 3.60732 10.1665 3.33398V1.33398C10.1665 1.06065 10.3932 0.833984 10.6665 0.833984C10.9398 0.833984 11.1665 1.06065 11.1665 1.33398V3.33398C11.1665 3.60732 10.9398 3.83398 10.6665 3.83398Z" fill="#383838"/>
<path d="M5.66667 9.66753C5.58 9.66753 5.49333 9.6542 5.41333 9.6142C5.33333 9.58087 5.26 9.53419 5.19333 9.47419C5.07333 9.34752 5 9.17419 5 9.00086C5 8.91419 5.02 8.82752 5.05333 8.74752C5.08667 8.66752 5.13333 8.5942 5.19333 8.52753C5.26 8.46753 5.33333 8.42085 5.41333 8.38752C5.65333 8.28752 5.95334 8.34086 6.14 8.52753C6.2 8.5942 6.24667 8.66752 6.28 8.74752C6.31333 8.82752 6.33333 8.91419 6.33333 9.00086C6.33333 9.17419 6.26 9.34752 6.14 9.47419C6.01334 9.59419 5.84 9.66753 5.66667 9.66753Z" fill="#383838"/>
<path d="M8.00016 9.66658C7.82683 9.66658 7.65349 9.59324 7.52682 9.47324C7.46682 9.40658 7.42016 9.33325 7.38683 9.25325C7.3535 9.17325 7.3335 9.08658 7.3335 8.99992C7.3335 8.82658 7.40682 8.65325 7.52682 8.52659C7.71349 8.33992 8.00683 8.27991 8.2535 8.38657C8.3335 8.41991 8.40683 8.46659 8.4735 8.52659C8.5935 8.65325 8.66683 8.82658 8.66683 8.99992C8.66683 9.08658 8.6535 9.17325 8.61349 9.25325C8.58016 9.33325 8.5335 9.40658 8.4735 9.47324C8.40683 9.53324 8.3335 9.57992 8.2535 9.61326C8.1735 9.65326 8.08683 9.66658 8.00016 9.66658Z" fill="#383838"/>
<path d="M5.66667 12.0006C5.58 12.0006 5.49333 11.9806 5.41333 11.9472C5.33333 11.9139 5.26 11.8672 5.19333 11.8072C5.07333 11.6806 5 11.5139 5 11.3339C5 11.2472 5.02 11.1606 5.05333 11.0806C5.08667 10.9939 5.13333 10.9272 5.19333 10.8606C5.26 10.8006 5.33333 10.7539 5.41333 10.7206C5.65333 10.6139 5.95334 10.6739 6.14 10.8606C6.2 10.9272 6.24667 10.9939 6.28 11.0806C6.31333 11.1606 6.33333 11.2472 6.33333 11.3339C6.33333 11.5139 6.26 11.6806 6.14 11.8072C6.01334 11.9272 5.84 12.0006 5.66667 12.0006Z" fill="#383838"/>
<path d="M13.6668 6.56055H2.3335C2.06016 6.56055 1.8335 6.33388 1.8335 6.06055C1.8335 5.78721 2.06016 5.56055 2.3335 5.56055H13.6668C13.9402 5.56055 14.1668 5.78721 14.1668 6.06055C14.1668 6.33388 13.9402 6.56055 13.6668 6.56055Z" fill="#383838"/>
<path d="M12.0002 15.8333C10.2535 15.8333 8.8335 14.4133 8.8335 12.6667C8.8335 10.92 10.2535 9.5 12.0002 9.5C13.7468 9.5 15.1668 10.92 15.1668 12.6667C15.1668 14.4133 13.7468 15.8333 12.0002 15.8333ZM12.0002 10.5C10.8068 10.5 9.8335 11.4733 9.8335 12.6667C9.8335 13.86 10.8068 14.8333 12.0002 14.8333C13.1935 14.8333 14.1668 13.86 14.1668 12.6667C14.1668 11.4733 13.1935 10.5 12.0002 10.5Z" fill="#383838"/>
<path d="M12.9933 13.1992H11C10.7267 13.1992 10.5 12.9726 10.5 12.6992C10.5 12.4259 10.7267 12.1992 11 12.1992H12.9933C13.2667 12.1992 13.4933 12.4259 13.4933 12.6992C13.4933 12.9726 13.2733 13.1992 12.9933 13.1992Z" fill="#383838"/>
<path d="M12 14.2199C11.7267 14.2199 11.5 13.9932 11.5 13.7199V11.7266C11.5 11.4532 11.7267 11.2266 12 11.2266C12.2733 11.2266 12.5 11.4532 12.5 11.7266V13.7199C12.5 13.9932 12.2733 14.2199 12 14.2199Z" fill="#383838"/>
<path d="M10.2467 15.1673H5.33333C2.9 15.1673 1.5 13.7673 1.5 11.334V5.66732C1.5 3.23398 2.9 1.83398 5.33333 1.83398H10.6667C13.1 1.83398 14.5 3.23398 14.5 5.66732V10.9073C14.5 11.114 14.3733 11.3006 14.1733 11.374C13.98 11.4473 13.76 11.394 13.62 11.234C13.2067 10.7673 12.6133 10.5007 11.9933 10.5007C10.8 10.5007 9.82667 11.474 9.82667 12.6673C9.82667 13.0607 9.93334 13.4473 10.14 13.7807C10.2533 13.9807 10.4 14.1473 10.56 14.2873C10.72 14.4206 10.78 14.6407 10.7067 14.8407C10.6467 15.034 10.46 15.1673 10.2467 15.1673ZM5.33333 2.83398C3.42667 2.83398 2.5 3.76065 2.5 5.66732V11.334C2.5 13.2407 3.42667 14.1673 5.33333 14.1673H9.21334C8.96667 13.714 8.83333 13.2007 8.83333 12.6673C8.83333 10.9207 10.2533 9.50065 12 9.50065C12.5267 9.50065 13.0467 9.63399 13.5 9.88066V5.66732C13.5 3.76065 12.5733 2.83398 10.6667 2.83398H5.33333Z" fill="#383838"/>
</svg>
