<svg width="24" height="24" viewBox="0 0 24 24" fill="none" xmlns="http://www.w3.org/2000/svg">
<path d="M9 10.75C7.48 10.75 6.25 9.52 6.25 8C6.25 6.48 7.48 5.25 9 5.25C10.52 5.25 11.75 6.48 11.75 8C11.75 9.52 10.52 10.75 9 10.75ZM9 6.75C8.31 6.75 7.75 7.31 7.75 8C7.75 8.69 8.31 9.25 9 9.25C9.69 9.25 10.25 8.69 10.25 8C10.25 7.31 9.69 6.75 9 6.75Z" fill="#757575"/>
<path d="M15 22.75H9C3.57 22.75 1.25 20.43 1.25 15V9C1.25 3.57 3.57 1.25 9 1.25H13C13.41 1.25 13.75 1.59 13.75 2C13.75 2.41 13.41 2.75 13 2.75H9C4.39 2.75 2.75 4.39 2.75 9V15C2.75 19.61 4.39 21.25 9 21.25H15C19.61 21.25 21.25 19.61 21.25 15V10C21.25 9.59 21.59 9.25 22 9.25C22.41 9.25 22.75 9.59 22.75 10V15C22.75 20.43 20.43 22.75 15 22.75Z" fill="#757575"/>
<path d="M21.25 5.75H15.75C15.34 5.75 15 5.41 15 5C15 4.59 15.34 4.25 15.75 4.25H21.25C21.66 4.25 22 4.59 22 5C22 5.41 21.66 5.75 21.25 5.75Z" fill="#757575"/>
<path d="M18.5 8.5C18.09 8.5 17.75 8.16 17.75 7.75V2.25C17.75 1.84 18.09 1.5 18.5 1.5C18.91 1.5 19.25 1.84 19.25 2.25V7.75C19.25 8.16 18.91 8.5 18.5 8.5Z" fill="#757575"/>
<path d="M2.6698 19.7005C2.4298 19.7005 2.1898 19.5805 2.0498 19.3705C1.8198 19.0305 1.9098 18.5605 2.2498 18.3305L7.1798 15.0205C8.2598 14.3005 9.7498 14.3805 10.7298 15.2105L11.0598 15.5005C11.5598 15.9305 12.4098 15.9305 12.8998 15.5005L17.0598 11.9305C18.1298 11.0205 19.7898 11.0205 20.8598 11.9305L22.4898 13.3305C22.7998 13.6005 22.8398 14.0705 22.5698 14.3905C22.2998 14.7005 21.8298 14.7405 21.5098 14.4705L19.8798 13.0705C19.3798 12.6405 18.5298 12.6405 18.0398 13.0705L13.8798 16.6405C12.8198 17.5505 11.1498 17.5505 10.0798 16.6405L9.7498 16.3505C9.2898 15.9605 8.52981 15.9205 8.01981 16.2705L3.0998 19.5805C2.9598 19.6605 2.8098 19.7005 2.6698 19.7005Z" fill="#757575"/>
</svg>
