<svg width="53" height="53" viewBox="0 0 53 53" fill="none" xmlns="http://www.w3.org/2000/svg">
<path d="M26.5002 28.1556C19.4997 28.1556 13.8022 22.4581 13.8022 15.4577C13.8022 8.45727 19.4997 2.75977 26.5002 2.75977C33.5006 2.75977 39.1981 8.45727 39.1981 15.4577C39.1981 22.4581 33.5006 28.1556 26.5002 28.1556ZM26.5002 6.07227C21.3327 6.07227 17.1147 10.2902 17.1147 15.4577C17.1147 20.6252 21.3327 24.8431 26.5002 24.8431C31.6677 24.8431 35.8856 20.6252 35.8856 15.4577C35.8856 10.2902 31.6677 6.07227 26.5002 6.07227Z" fill="#5AB251"/>
<path d="M45.4699 50.2396C44.5645 50.2396 43.8137 49.4887 43.8137 48.5833C43.8137 40.9646 36.0403 34.7812 26.5003 34.7812C16.9603 34.7812 9.18701 40.9646 9.18701 48.5833C9.18701 49.4887 8.43618 50.2396 7.53076 50.2396C6.62535 50.2396 5.87451 49.4887 5.87451 48.5833C5.87451 39.1537 15.1274 31.4688 26.5003 31.4688C37.8733 31.4688 47.1262 39.1537 47.1262 48.5833C47.1262 49.4887 46.3753 50.2396 45.4699 50.2396Z" fill="#5AB251"/>
</svg>
